<svg version="1.0" xmlns="http://www.w3.org/2000/svg" width="1469.3333" height="1469.3333" viewBox="0 0 1102 1102"><path d="M417.5 57.6c8.8 1.6 11.6 1.6 5-.1-2.7-.7-6.6-1.3-8.5-1.3-2.3 0-1.1.5 3.5 1.4zM432.8 61.7c.6.2 1.2.9 1.2 1.4 0 .6-.7.6-1.9 0-1.2-.7-3.9-.7-7.6-.1-8 1.3-8.1 2.1-.2 1.3 5-.4 7.1-.2 8.3.8 1.3 1.1 1.8 1.1 2.1.2.3-.9 1.6-.7 4.6.8 6.5 3.3 7 3.9 5.1 6-.9 1-2.1 1.6-2.7 1.2-.6-.4-.8 0-.4 1.1.4 1 .7 2 .7 2.2 0 .2.6.4 1.4.4.7 0 1.9.7 2.6 1.5.9 1.1.7 1.9-1 3.7-1.2 1.3-2.5 3.1-2.9 4.1-.6 1.7-.8 1.7-2 .3-1.1-1.3-1.1-1.6.2-1.6 1.1 0 1.5-.9 1.5-3-.1-4.1-1.5-3.8-2.7.7-.8 2.8-.7 4.4.4 6.6l1.4 2.8-3.2-.6c-1.8-.4-5.2-1.4-7.7-2.2-2.8-1-9.7-1.8-18.2-2.1-7.6-.2-13.8-.7-13.8-.9 0-.8 4.1-6.5 8.4-11.6 4.7-5.6 8.3-7.8 11.7-7.1 2.3.5 2.3.5.4-.7-1.1-.8-4-1.4-6.5-1.5-2.5-.1-3.7 0-2.7.3 2.5.7 2.1 2.1-1.4 5.4-1.7 1.6-4.8 5.6-7 8.9-3.7 5.8-4 6-8.1 6.1-8 .1-13.6 1.5-19.3 5-4.9 2.9-6.2 4.4-9.2 10.4-2 3.8-4.6 9.7-5.8 13-4.8 12.9-6.7 16.2-10.2 17.4-3.5 1.3-17.3 11.7-17.3 13 0 .5-1.8 3.1-4 5.8-2.2 2.8-3.7 5.3-3.3 5.6.3.4-.1 1.7-.9 2.9-1.5 2.2-2.3 4.9-3.4 11.3-.2 1.6-1 4.6-1.6 6.5-.8 2.5-.8 3.5.1 3.8.6.2 1.1 1.5 1.1 2.8 0 1.3.5 2.4 1 2.4 2 0 .9 4-1.6 5.7-9.5 6.7-19.5 23.4-19.2 32 .1 2.3-.3 4.8-.9 5.5-1.8 2.3-1.6 10.8.3 13.6 1 1.5 1.7 4.2 1.6 6.2-.2 1.9.9 8.6 2.3 14.9 1.4 6.3 2.5 13 2.5 14.9 0 4.3 2.7 14.8 4.5 17.6.7 1.1 1.7 3.9 2.1 6.1.3 2.2 1.3 5.2 2 6.7.8 1.5 1.4 4.7 1.4 7.3 0 2.5.4 4.5.9 4.5.9 0 1.3 1.3 2.5 7.5.3 1.1 1.9 5.4 3.6 9.5 1.8 4.1 3.4 8.6 3.7 9.8.3 1.3 1.6 4.4 2.8 6.9 1.9 4.1 2 5 .9 8.2-1.6 4.5-1.7 10.8-.3 15 1.5 4.3 2.8 3.9 2.7-1 0-4.8 1.2-6.4 4.4-5.5 4.4 1.1 4.5 1.7 5 17.3.6 16.9-.1 18.8-4.3 11.3-1.2-2.1-2.5-3.7-2.9-3.5-.4.2-.7-1.2-.7-3.2 0-2.3-.6-4.1-1.7-4.9-1-.7-2.2-2.8-2.7-4.6-.6-2.4-.7-1.2-.4 4.2.5 8.3 2.2 13.3 7.8 23.2 2.1 3.7 4.8 10 5.9 14 1.1 4 3.6 10.5 5.4 14.5 1.9 4 3.4 7.9 3.4 8.9 0 4.4 9.9 10.4 17.2 10.4 1.5 0 2.9.4 3.2.8.3.5 2 .7 3.7.4 2.7-.4 3.1-.2 2.6 1.3-.4.9-.4 2.2 0 2.8.6 1 1 4.9 1.4 11.9 0 1 .4 2 1 2.3.5.4.9 2.4.9 4.5 0 3.1.3 3.8 1.5 3.4.8-.4 1.7.1 2.1.9.3.9 1.1 1.4 1.8 1.1 1.8-.7 4.9 4.4 5.3 8.6.2 1.9.6 4.1.8 4.8.5 1.3-2.8 13.2-4.6 16.4-.5 1-.9 2.7-.9 3.7 0 1.1-.4 2.2-.8 2.5-1.3.8.1 8.9 1.6 9.4.7.2 1-.2.7-1.1-.3-.7.1-2 .9-2.6 1.3-1.1 1.7-.9 2.6 1.4.5 1.4 1 3.1 1 3.6 0 2.6 2.1.3 3.7-4.1 1-2.8 2.1-5 2.4-5 .4 0 1.5 1.2 2.5 2.7.9 1.5 3.7 4.8 6 7.3 4.7 5 4.9 6.1 4 19.8-.3 5 .1 7.2 1.9 11 4.3 9 17.3 24.1 24.5 28.7 2 1.3 4.3 2.9 5.1 3.7 1.8 1.7 21.4 15.9 36.2 26 6.1 4.3 11.7 8.1 12.2 8.6 2.1 1.7 6.5 4.4 6.5 4 0-.3-2.5-2.5-5.5-4.9-3-2.4-5.5-4.9-5.5-5.6 0-.7-.8-1.3-1.8-1.3-2.5 0-6.7-3.6-5.2-4.5.6-.4 1.7-.1 2.5.5.8.7 1.5.9 1.5.4 0-.4.5-.3 1.1.3 1.4 1.4 6.9-1.5 6.2-3.3-.6-1.6 3.3-3.8 4.2-2.4.3.5.3 1-.1 1-1.6 0 3.2 2.9 4.9 3 2.1 0 2.2-1.4.2-3.3-1.3-1.3-1.3-1.6.1-2.1 2.2-.9 2.4-.8 2.4 1 0 .9.5 1.2 1.2.8 1.8-1.1 4.8-1.2 5.4-.2.3.4-.4.8-1.4.8-1.1 0-2.5.6-3.1 1.3-.8 1.1-.6 1.3.9 1.2 1.1-.1 2.3-.4 2.6-.8.4-.4 1.3-.7 2-.7 1.4 0 1.4 3.1-.1 4.3-.6.5-.4.7.5.4.8-.2 1.6-.9 1.6-1.5.1-.7.2-1.6.3-2.1.1-.9 2.9-2.2 6-2.7.8-.2 1.7-.8 2.1-1.4.4-.7 1.8-.8 3.6-.4 1.6.3 4 .6 5.4.6 2 0 2.2.1.7.9-1 .6-1.7 2.1-1.6 3.7.1 1.7.3 2.1.6.9.2-.9.9-1.4 1.5-1.1.6.4.9.3.5-.2-1-1.7 3.2-5.5 6.6-5.8.5-.1 1.5-.9 2.2-2 1-1.2 2.2-1.7 3.9-1.4 2.4.5 4.2-1.3 3.7-3.6-.1-.4.9-.6 2.3-.2 2.6.6 4.5-.8 2.4-1.8-.7-.3-.3-.3 1 0 1.5.4 2.2.1 2.2-1 0-1.7 5.3-4.6 8.5-4.6 2.3 0 6.8 3.2 6.4 4.7-.1.4-1.3 1.8-2.6 3.1-1.4 1.3-2.3 2.5-2.1 2.8.3.2 1.1-.2 1.8-1.1.7-.8 1.9-1.5 2.8-1.5 1.3 0 1.2.3-.3 2-.9 1-1.5 2.6-1.2 3.5.4.8.1 1.5-.6 1.5s-2.3 1.9-3.6 4.3l-2.4 4.2 3.7-3.5c7.1-6.6 22.1-22 25.1-25.6 1.7-2 4.6-5.3 6.5-7.4 5.6-6 8.6-10.6 14.5-22.2l5.6-10.9-.1-9.2c-.3-14.4-.1-18.7.8-18.7 1.9 0 6.2 10.2 8.6 20 3.1 13 6.8 23 8.9 24.2 1 .5 1.7 1.3 1.7 1.8s1.3 3 2.9 5.7c1.7 2.6 4.1 8.8 5.5 13.8 4.4 15.4 5.1 23.9 4.8 55.8-.2 25.7-.2 26-3.6 40.2-1.9 7.8-4.2 19.3-5 25.3-1.5 10.5-7.8 82.6-9 103.2-.4 5.2-1.1 14.2-1.6 20-5.2 53.2-9 92.6-9.5 98-.3 3.6-1.2 11.7-2 18-.8 6.3-2.2 18.2-3 26.5-.9 8.2-2.4 22.2-3.5 31-1 8.8-2.6 23.2-3.5 32-.9 8.8-2.5 22.5-3.5 30.5-1.1 8-2.3 17-2.6 20-.3 3-.8 5.8-1.1 6.3-.6.9-.1.9 11.5-.4 14.2-1.5 41.9-6.4 59.6-10.4 73.5-16.7 145.6-50.2 206.6-95.8 20.8-15.7 39.7-32.2 60.5-53.1 26.1-26.2 45.8-50 66.4-80.6 7.9-11.8 8.9-13.6 7.5-14.7-1.3-.9-1.7-4.7-2.4-20.5l-.9-19.3 3-2.8c3-2.9 3.4-5.2.9-5.2-.7 0-1.6-.9-2.1-2-1-2.7-1.1-8.5-.1-8.5s.9-5.3-.1-6.1c-.5-.3-1.1-2.6-1.4-4.9-.6-4-2.8-8-4.4-8-.4 0-1 1.8-1.4 4.1-1 5.8-2.7 4.4-4.5-3.8-.8-4-1.8-7.5-2.2-7.9-.5-.4-.8-1.8-.8-3.1s-.4-3.1-.9-4.1c-.5-.9-1.7-3.7-2.7-6.2-4.8-12-10.2-16.3-22.4-18-6.6-.9-9.8-1.7-16-3.8-.8-.3-2.5-.4-3.7-.3-1.5.2-2.2-.3-2.1-1.6.1-5-8.5-23.3-13-27.6-3.9-3.7-9.7-5.7-13.4-4.6-1.9.5-4.2.3-6.6-.5-2-.7-7.1-1.9-11.2-2.6-4.1-.7-8.6-1.8-10-2.5-1.4-.7-6.5-2.7-11.5-4.4-4.9-1.8-12.4-4.7-16.5-6.6-4.1-1.8-14-4.9-22-6.8-8-2-21.6-6.3-30.3-9.6s-17.7-6.6-20-7.2c-2.3-.6-11.6-4.8-20.6-9.5-20.8-10.6-37.2-18.1-67.6-30.7-3.3-1.4-6-2.9-6.1-3.4 0-.4-4.1-4.9-9.1-10-11.2-11.2-14.8-16.4-16.9-24-2.5-9.3-1.9-16.6 1.9-20.5 4.4-4.6 9-11.3 11.3-16.4 1.4-3.2 3.7-7.3 5-9.1 1.3-1.7 2.4-3.6 2.4-4.2 0-.6.4-1.1.8-1.1 1 0 4.8-12 5.7-18 1.1-7.8 1.4-9.4 2.1-15.5.3-3.3.8-6.8 1-7.8.5-3.1 8.7-18.9 11.1-21.5.7-.7 1.6-2.5 1.9-4 .3-1.5 1.5-5.6 2.6-9.2 1.1-3.6 2.8-10.3 3.8-15 1.7-8.1 3.9-15.2 6-19.5.6-1.1 1.8-5.4 2.8-9.5 2.1-8.4 1.7-15.3-1.4-27-1.4-5.1-1.8-10.7-1.9-26.5 0-24.4.5-36.5 1.6-38.7.5-.9 1.1-7 1.4-13.5.3-6.5.8-12.9 1.1-14.3 1.1-4.2 1.3-21.2.3-26-.5-2.5-1.1-5.8-1.4-7.4-.7-4.3-4.6-15.8-6.1-18.1-.8-1.1-1.4-2.7-1.4-3.7s-.4-1.8-.9-1.8-1.2-1.4-1.6-3c-.4-1.7-1.1-3-1.7-3-.6 0-.8-.3-.5-.7.4-.4-.4-1.9-1.9-3.4-1.4-1.5-2.4-3.1-2.2-3.6.1-.4-.7-.9-2-1.1-1.6-.2-2.2-.8-1.8-1.8.3-.8.1-1.4-.5-1.4-.5 0-2.6-1.9-4.7-4.2-9.3-10.7-28.7-28.8-30.8-28.8-.6 0-1.4-.6-1.7-1.3-.4-1.2-3.9-3.3-14.9-9-2.1-1-3.8-2.3-3.8-2.7 0-.5-2-3-4.4-5.6-2.5-2.6-5.3-6.3-6.3-8.1-2-3.8-3.8-4.4-2.8-1.1.5 1.8-.3 1.3-3.3-2-2.2-2.3-4.3-4.2-4.7-4.2-2.1 0-9.3-7.8-9.5-10.2 0-.4 1.8-1.3 4-1.9 2.5-.8 3.9-1.7 3.6-2.5-.3-.7.4-2 1.5-3 2.3-2 2.4-3.1.4-3.1-.8 0-1.2.3-1 .7.8 1.3-11.8 6.4-12.9 5.2-.4-.3-1.8-.6-3.3-.7-1.8 0-2.8-.7-3.4-2.4-.8-1.9-.6-2.2.6-1.7.9.3 1.8-.1 2.1-.9.3-.8 1.5-1.7 2.6-2.1 1.1-.3 1.7-.8 1.4-1.1-.2-.3-2.1 0-4.1.7-3.6 1.2-3.8 1.1-6.9-2.2-1.7-1.8-3.8-4.2-4.6-5.3-.8-1.1-4.9-5-9.1-8.5-6-5-8.5-6.6-11.3-6.7-4.7-.4-4.6.4.2 1.7 2.4.6 4.4 1.9 5.2 3.5.9 1.7 1.9 2.3 3.1 2 1.8-.6 9.9 7.7 14.1 14.4 2.7 4.2.7 3.9-3.1-.4-1.7-1.9-3.3-3.5-3.6-3.5-1.2 0-.4 4.1 1 4.6.8.4 1.5 1 1.5 1.5 0 1.2-5.6-1.6-6.6-3.3-.4-.6-1.1-2.5-1.5-4.2l-.7-3.1-.1 3.7c-.1 2.9-.5 3.8-1.9 3.8-2.4 0-6.2-2.8-6.2-4.6 0-.8-.4-1.4-.9-1.4s-1.4-1.2-2-2.8c-.6-1.5-3.2-4.9-5.7-7.6-3.1-3.3-4.2-5.1-3.4-5.6.7-.5.1-1-1.7-1.4-1.5-.4-4.4-1.7-6.3-2.9-4.4-2.8-11.7-5.6-12.5-4.9-.8.9 4.6 4.1 6.1 3.5.7-.3 2.3.2 3.5 1.1 1.7 1.1 1.9 1.6.8 2-.8.2-2.1.7-2.9.9-.8.3.4.6 2.8.6 3.8.1 4.8.7 10.2 6.2 5 5.1 6 6.7 6 9.5 0 4.3-1.9 5.2-5.7 2.6-3.2-2.2-9.7-6.2-13-8-1.3-.6-3-1.2-3.8-1.2-1.4 0-2-1.2-1.6-3.3.1-.5-.3-.6-.7-.3-.5.3-1.7-.3-2.7-1.4-1-1.1-2.2-1.7-2.6-1.4-.5.3-1.9.2-3.1-.2l-2.1-.6 2.4-1.9 2.4-1.9-3.3.6c-2.7.5-3.1.4-2.6-.9.4-1.2.1-1.4-1.5-1-2.4.6-2.6-.2-.7-3.6 1.2-2.1 1.4-2.2 2-.5.6 1.6.8 1.6 2.2-.5 1.5-2.1 1.5-2.4-.6-3.8-1.2-.8-1.9-2.1-1.6-2.9.3-.8.1-1.4-.5-1.4s-.8-.4-.5-.8c.3-.5-1.6-.7-4.1-.5-4.7.5-11.5 3.4-11.3 5 .1.4-.1 1.6-.4 2.5-.4 1.9-3.6 2.5-3.6.7 0-.6-.9-.8-2.2-.4-1.6.4-1.9.3-1-.3 1.1-.7 1.1-1-.2-1.5-1.9-.8-2.1-3.3-.3-4 .7-.3.6-.6-.5-.6-2.8-.2-6.5 1.6-9.7 4.8-1.7 1.7-3.7 2.8-4.5 2.5-.8-.3-1.7-.1-2.1.5-.3.6-1.6 1.1-2.8 1.1-2.1-.1-2.1-.1.3-1.5 3.4-1.9 1.7-1.9-2.1 0-3 1.6-7.9 1.7-9 .1-.4-.4-1.7-.2-3 .5-2.2 1.1-2.3 1.1-1-.4.8-1 .9-1.7.3-1.7-.6 0-1.3.4-1.6.9-1 1.6-5.7 1.9-6.3.5-.3-.8-1.3-1.4-2.2-1.4-1.4.1-1.4.2.2 1.4.9.7 1.7 1.7 1.7 2.1 0 .4-.6.3-1.3-.3-.7-.6-2.3-.9-3.5-.5-1.2.3-2.2.1-2.2-.4s-1.1-1.5-2.4-2.1c-1.3-.6-5.1-3.1-8.4-5.6-3.3-2.5-6.9-4.6-8-4.6-1.1 0-5.8-2-10.5-4.5-4.8-2.5-9.2-4.5-9.9-4.4-1 0-1 .2 0 .6zm17 12.5c.7.7 1.2 1.8 1.2 2.5 0 1.8-3.5 1.6-5.1-.3-1-1.3-1-1.7.2-2.5 1.9-1.2 2.3-1.1 3.7.3zm9.3.5c1.3 1.5 1.2 1.5-.8.4-2.4-1.2-2.9-2.1-1.4-2.1.5 0 1.5.7 2.2 1.7zm81.3.9c2.4.9 1.9 3.2-.6 3.7-2 .4-1.9.4.5.6 2.7.1 2.7.1 1.2 3.1-.9 1.8-2.3 3-3.5 3-1.1 0-2 .4-2 .9 0 1.3-3.7 2.4-5.1 1.5-.8-.4-.7-.9.2-1.5 1-.6 1.1-1.1.3-1.7-2.5-1.7 1.1-8.8 4.8-9.5 1.3-.2 2.4-.5 2.5-.6.1 0 .8.2 1.7.5zm-23.8 1.9c-1.1.8-2.2 1.2-2.5.9-.6-.6 1.9-2.4 3.4-2.4.6.1.1.7-.9 1.5zM469.5 84c.3.6.3 1-.2 1-1.1-.1-4.3-2.6-4.3-3.4 0-.9 3.7 1.1 4.5 2.4zm-11.8 2.2c3.6 5.6 5.4 9.8 4.3 9.8-.6 0-1-.5-1-1 0-.6-.4-1-.9-1s-.8.8-.7 1.7c.1 1.3-.7 1.8-2.9 1.9-4 .2-7.5-1.2-7.5-3 0-.7-.6-1.9-1.4-2.5-.8-.6-1.6-2.3-1.8-3.6-.4-1.9.2-2.9 2.6-4.5 4.5-2.9 6.3-2.5 9.3 2.2zm33.7.4c2.7 1 1.8 2.1-1.4 1.6-1.6-.2-3-.8-3-1.3 0-1 2.1-1.2 4.4-.3zm-102.6 3.5c-8.6 3.1-15 6.6-19.8 10.8-2.4 2.2-4.6 3.9-4.8 3.7-.1-.2 1-2.5 2.5-5.1 4.5-7.6 16.4-13.1 25.1-11.6 1.9.3 1.3.7-3 2.2zm29.5-1.3c2.2.4 2.5.7 1.6 1.8-.8 1-.8 1.4-.1 1.4.6 0 1.4-.5 1.8-1.1.9-1.5 6.7-.3 13.4 2.9 6.8 3.2 8.7 4.9 6.2 5.5-1.3.4-1.1.5.6.6 1.2 0 2.2.5 2.2 1 0 .6-2 .3-4.5-.6-3.7-1.2-4.4-1.8-3.4-2.9.9-1.2.5-1.4-2.7-1.3-3.8.2-11-.7-14.7-1.7-.9-.3-1.4-1-1.1-1.6.4-.6.1-.8-.7-.6-.8.3-2.9-.1-4.8-.8-1.8-.8-4.2-1.4-5.3-1.4-1.1 0-1.6-.5-1.3-1 .7-1.1 7.4-1.2 12.8-.2zm-14.4 3.8c.2.2-2 .4-5 .3-4.1-.1-4.8-.3-2.9-.9 2.2-.7 6.8-.3 7.9.6zm61.6-.6c.3.6-.1.7-.9.4-1.8-.7-2.1-1.4-.7-1.4.6 0 1.3.4 1.6 1zm20.6 0c1.4.8 1.9.7 1.9-.1 0-.7.2-1 .5-.8.7.7-1.8 6.9-2.7 6.9h-1.3c-.3 0-.4-.1-.2-.3.1-.2-.6-1.1-1.6-2.1-1.4-1.4-1.5-2.1-.6-3.2 1.4-1.7 1.5-1.7 4-.4zM392 93.4c0 .4-4.6 2.3-12.5 5.2-1.9.6-1.9.6-.3-1.2 2.5-2.6 12.8-5.8 12.8-4zm18.9 3.2c1.5 1.3-4.1 1.4-10.6.1l-7.8-1.5 9 .5c5 .3 9.2.7 9.4.9zm-12.4 2.3 3 .8-3 .7c-1.6.4-4.5 1.4-6.3 2.2-4.2 1.8-4.5 1.8-3.7-.6.9-2.9-.4-2.5-1.5.5-.5 1.4-2 2.9-3.3 3.4-3.2 1.3-14.7 9.4-17.6 12.5-1.4 1.4-2.9 2.6-3.5 2.6-.6 0-.5-.5.2-1.2s1.2-2 1.2-3c0-2.6 4.3-9.1 7.4-11.1 1.4-1 2.6-1.4 2.6-1.1 0 .4.8 0 1.8-.9 5-4.5 15.7-6.8 22.7-4.8zm77 .1c.3.5.1 1-.4 1-.6 0-1.1-.5-1.1-1 0-.6.2-1 .4-1 .3 0 .8.4 1.1 1zm-12.5.9c0 .5-.9 1.1-2 1.4-1.1.3-1.8.1-1.5-.3.3-.5-.1-1.1-.7-1.3-.7-.3-.1-.6 1.5-.6 1.5-.1 2.7.3 2.7.8zm100.8 3.1c4.1 2.5 4.1 3.4-.3 2.7-3.3-.5-4.9.6-2.2 1.6.8.4.7.6-.3.6-3.1.1-4.2-1.4-2.9-4.2 1.5-3.2 1.5-3.2 5.7-.7zM397 103c-.8.5-2.2 1-3 1-1.3 0-1.3-.1 0-1 .8-.5 2.2-1 3-1 1.3 0 1.3.1 0 1zm65 1c0 .5-.8 1-1.7 1-1.5 0-1.6-.2-.3-1 1.9-1.2 2-1.2 2 0zm-58.3 5.6c-.3.3-1.2.4-1.9.1-.8-.3-.5-.6.6-.6 1.1-.1 1.7.2 1.3.5zm208.9 13.2c-2.2.5-3-.3-2.1-1.8.5-.8 1.1-.7 2.2.2 1.5 1.2 1.4 1.3-.1 1.6zM370 121.4c0 .3-.4.8-1 1.1-.5.3-1 .1-1-.4 0-.6.5-1.1 1-1.1.6 0 1 .2 1 .4zm256.5 8.6c.3.5.2 1-.4 1-.5 0-1.3-.5-1.6-1-.3-.6-.2-1 .4-1 .5 0 1.3.4 1.6 1zm-2.5 4c1.1 1.1 1.7 2 1.3 2-.3 0 .2.9 1.2 2 1.1 1.2 1.3 2 .6 2-.7 0-2-1.3-2.9-3-.9-1.6-2-3-2.4-3-.5 0-.8-.5-.8-1 0-1.5.8-1.2 3 1zm-275.5 2c-.8 1.3-6.6 4.3-7.1 3.7-.7-.7 4.7-4.7 6.3-4.7.8 0 1.1.5.8 1zm285.1 4.5c1.6 1.2 1.6 1.4.3 1.5-.9 0-2.2-.7-2.9-1.5-1.6-1.9 0-1.9 2.6 0zm-290.3 9.3c-1.2 1.5-2.6 2.6-3.2 2.4-.6-.1-1 .1-.9.5.3 1.2-8.3 9.3-9.8 9.3-2.1 0-1.7-1.3 1.5-5.6 3.8-5.2 7-7.9 10.6-9.1 3.9-1.3 4.3-.8 1.8 2.5zm-24.6 48.5c-1.6 2.5-3.7 3.4-3.7 1.6 0-1.8 3.1-5 4.2-4.3.5.3.3 1.5-.5 2.7zm-6.1 6.2c-.4 1.4-1 2.3-1.5 2.1-.5-.3-1.4.1-2.1.9-1.8 2.1-2.9 1.9-2.3-.5.6-2.1 5.2-6.4 6.1-5.6.2.3.1 1.7-.2 3.1zm-6.6 9c-.7.9-1.5 1.3-1.8 1-.3-.2.1-1.1.8-2 .7-.9 1.5-1.3 1.8-1 .3.2-.1 1.1-.8 2zm-2.9 16.8c-.8.8-1.1.7-1.1-.4 0-2 1.3-3.4 1.8-1.9.3.7-.1 1.7-.7 2.3zM487 275.4c0 .3-.4.8-1 1.1-.5.3-1 .1-1-.4 0-.6.5-1.1 1-1.1.6 0 1 .2 1 .4zm14.4 2c-.7 1.8-2.2 2-4.4.6-1.3-.9-1.3-1 0-1.1.8-.1 2.1-.1 2.8 0 .6.1 1.2-.4 1.2-1 0-.7.2-1 .5-.7.3.3.3 1.3-.1 2.2zm-39.9 3.6c-1 1.1-2.1 1.8-2.3 1.5-.6-.6 3.1-4.4 3.7-3.9.2.2-.4 1.3-1.4 2.4zm49.5-2c.3.1.8.2 1.3.1.4 0 .7.3.7.9 0 .5-.7 1-1.6 1-.8 0-1.2.5-.9 1.1.4.6 1.4.8 2.2.5.8-.3 2.4.1 3.7.9 1.3.9 3.1 1.3 4 .9.9-.4 1.6-.1 1.6.6s.8 1 1.9.7c1.1-.3 2.9.2 4 1 1.2.8 3.3 1.5 4.9 1.7 1.5.1 2.6.8 2.4 1.5-.1.7.1 1 .6.7.4-.2 1.4-.1 2.1.3 2.2 1.4.3 5-3.2 5.9-1.8.5-3.1 1.4-3 2 .1.5-.4 1.3-1.2 1.6-.9.3-1.5-.1-1.5-.9s-.7-1.5-1.5-1.5-1.5.5-1.5 1.1c0 1.2-4 4.8-5.4 4.9-.4 0-.6-.7-.3-1.4 1-2.5-1.9-.7-3.3 2-.8 1.3-2.1 2.4-2.9 2.3-3.5-.3-4.7.2-6.3 3.1-.9 1.7-2.4 3-3.3 3-.9 0-1.3.4-1 1 .3.5.1 1-.4 1-.6 0-1.1 1.2-1.1 2.6 0 1.4-.6 3.5-1.2 4.7-.7 1.2-1.3 2.9-1.4 3.7-.1.8-.2 2.5-.3 3.8-.1 1.9-.6 2.3-2.8 2-2-.2-3.3-1.3-4.5-3.8-2.4-4.9-3.2-7.2-3.2-9.5-.1-1.2-.7-2-1.8-1.9-.9.1-4.3-2.2-7.5-5.2-3.3-3-6.2-4.9-6.7-4.4-1 1-3.4.3-6-1.9-1-.9-3.2-1.7-5-1.8-6.9-.4-14.2-1.5-15.8-2.4-3.1-1.7.7-9.1 4.3-8.2 2 .6 2.6-1.1.8-2.3-.8-.4-.7-1 .1-1.8.9-.8 1.4-.8 1.7.1.3 1 1.2.9 3.5-.3 1.6-.8 3.6-1.3 4.4-1 .9.3 1.2.1.9-.4-.3-.6-.3-1 .2-1.1 2.8-.3 7.3-1.1 13.5-2.4 1.4-.4 2.9-.1 3.3.4 1 1.8 2.5 1.3 1.8-.6-.5-1.2-.2-1.5.8-1.1.8.3 2.2.9 3.1 1.3 1.3.5 1.5.2 1.1-1.5-.6-2.1-.3-2.2 4.1-1.9 2.5.2 4.7.1 4.8-.3.2-.5 1.8-.4 3.6.1 2 .6 3.2.6 3.2 0 0-.5.7-.9 1.6-.9.8 0 1.3.4.9.9-.6 1.1 3.3 3.6 4.3 2.7.3-.4 0-1.2-.6-1.8-.7-.7-1.2-1.5-1.2-1.8 0-.6 3.6-.5 5 0zm41.2 57.7 3.2 3.3h-3c-5.1-.1-12.9-2.5-13.2-4.2-.2-.9 1.6-3.6 3.9-6l4.2-4.3.9 4c.5 2.2 2.2 5.4 4 7.2zm7.8-8.7c0 .5-.5 1-1.1 1-.5 0-.7-.5-.4-1 .3-.6.8-1 1.1-1 .2 0 .4.4.4 1zm-30 5.5c-.7.9-1.5 1.3-1.8 1-.3-.2.1-1.1.8-2 .7-.9 1.5-1.3 1.8-1 .3.2-.1 1.1-.8 2zm-80.3 2.8c1.5 1.3 4.2 3.2 6 4.2 3.5 2 3.5 3.5-.1 3.5-1.3 0-4.9.9-8.1 2-3.2 1.1-6.2 2-6.6 2-.5 0 .3-1.6 1.6-3.6 1.4-2.1 2.5-5.1 2.5-7 0-4 .9-4.2 4.7-1.1zm86.3.1c0 .3-.4.8-1 1.1-.5.3-1 .1-1-.4 0-.6.5-1.1 1-1.1.6 0 1 .2 1 .4zm38 .6c0 .5-.7 1-1.6 1-.8 0-1.2-.5-.9-1 .3-.6 1-1 1.6-1 .5 0 .9.4.9 1zm-140 1c0 .5-.2 1-.4 1-.3 0-.8-.5-1.1-1-.3-.6-.1-1 .4-1 .6 0 1.1.4 1.1 1zm-9.7 9.3 3.2 2.8-3-.6c-7.9-1.7-10.8-4.9-8.1-9.1l1.8-2.7 1.5 3.4c.7 1.8 2.8 4.6 4.6 6.2zm250.3-5.9c3.9 2.9 1.9 25-2.6 29.1-1.7 1.5-1.8 1.1-1.9-8.7-.1-5.7-.4-12.2-.7-14.6-.4-2.7-.2-4.8.6-5.7 1.5-1.9 2.1-1.9 4.6-.1zm-141.9 3.2c-.3.3-1.2.4-1.9.1-.8-.3-.5-.6.6-.6 1.1-.1 1.7.2 1.3.5zm149.5 10.1c0 6.9-1.6 12.3-6.2 21.1-3.4 6.5-3.4 4.4 0-4.4 1.8-4.8 3.3-10.6 3.6-14.9.3-3.9.8-7.6 1-8.4.9-2.9 1.6.1 1.6 6.6zM437 349c0 .5-.5 1-1.1 1-.5 0-.7-.5-.4-1 .3-.6.8-1 1.1-1 .2 0 .4.4.4 1zm27-.2c0 1.4-1.1 2.1-2.6 1.5-.8-.3-1.1-.9-.8-1.4.7-1.1 3.4-1.2 3.4-.1zm-21 4.2c0 .5-.2 1-.4 1-.3 0-.8-.5-1.1-1-.3-.6-.1-1 .4-1 .6 0 1.1.4 1.1 1zm-5.3 1.6c-.3.3-1.2.4-1.9.1-.8-.3-.5-.6.6-.6 1.1-.1 1.7.2 1.3.5zm221.3 5.1c0 .8-.4 1.2-.9.9-1.7-1.1-.5 2.3 1.6 4.6 2.9 3.1 4.3 7.1 4.3 12.3 0 4.4-1.6 6.8-3 4.5-1.3-2.2-4.3-.6-5.2 2.7-.8 3.2-8.3 10.6-10.2 10-1.2-.4-1.4-19.3-.1-19 .6.1 1.8.5 2.7.8 1.2.5 2.6-.2 4.4-2.2 4-4.3 4.4-6.3 2-9.6-1.3-1.8-1.7-3.1-1-3.5.6-.4 1.3-1.5 1.7-2.4.7-2.1 3.7-1.3 3.7.9zM496.5 368c.3.5.1 1-.4 1-.6 0-1.1-.5-1.1-1 0-.6.2-1 .4-1 .3 0 .8.4 1.1 1zM353 374.4c0 .3-.4.8-1 1.1-.5.3-1 .1-1-.4 0-.6.5-1.1 1-1.1.6 0 1 .2 1 .4zm145 1.1c0 .9-.6 1.2-1.5.9-.8-.4-1.5-1-1.5-1.5s.7-.9 1.5-.9 1.5.7 1.5 1.5zm-143 3.1c0 .9-.5 1.4-1.2 1.2-1.8-.6-2.1-2.8-.4-2.8.9 0 1.6.7 1.6 1.6zm139 2.5c0 2.4-2.3 2.1-2.8-.4-.2-1 .3-1.7 1.2-1.7 1 0 1.6.9 1.6 2.1zm7.1 4.4c2.3 2.5 4.8 4.5 5.5 4.5.8 0 1.4.4 1.4.8 0 1.1 6.1 7.3 8.6 8.8 1.6 1 1.7 1.5.7 3.3-.7 1.1-1.3 2.8-1.3 3.6 0 .8-.5 1.5-1 1.5-.6 0-1.5 1-2.1 2.3-2 4.4-10.2 7.4-15.7 5.7-8.4-2.6-14-6.5-16-11.3-1.1-2.8-1-3.4.8-5.9 1.1-1.5 2-3.7 2-4.8 0-1.1.7-2.3 1.5-2.6 1.6-.7 3-4.1 2.6-6.7-.1-1.2.4-1.7 1.9-1.7 1.6 0 2 .5 1.6 1.5-.4 1.1.1 1.5 1.9 1.5 1.4 0 2.4-.3 2.4-.8-.3-1.5.1-4.2.6-4.2.2 0 2.3 2 4.6 4.5zM353.5 387c-.5.8-1.3.5-2.7-.9-2.6-2.8-1.2-5 1.4-2.3 1.2 1.1 1.7 2.5 1.3 3.2zm209.5-4c0 .5-.7.7-1.5.4-.8-.4-1.5-.8-1.5-1 0-.2.7-.4 1.5-.4s1.5.4 1.5 1zm5.1.6c2 1.8 9.9 3.6 9.9 2.3 0-.5.7-.9 1.6-.9 1 0 1.4.7 1.2 2.2-.2 1.8.3 2.4 2 2.6 1.3.2 3-.2 3.8-.9 1.2-1 1.3-.9.9.3-.4 1 .2 1.7 1.7 2.2 1.8.5 2 .8.9 1.5s-1 1.2.8 2.2c2.9 1.9 3 9.2.1 11.6-2 1.7-2.8 7.3-1.1 7.3 1.3 0 2.3 3.2 1.2 3.9-.5.3-1 1.5-1.2 2.5-.3 1.2-1.3 2-2.7 2.1-1.2.1-3.3 1.2-4.7 2.5-1.4 1.3-2.5 2-2.5 1.6 0-.5-.7-.3-1.5.4-.8.6-1.9.9-2.5.5-.5-.3-1-.1-1 .4 0 .6-.6 1.1-1.4 1.1-.8 0-1.6.5-1.8 1.1-.3.9-.9.9-2.5.1-2.5-1.4-3.6-.5-2.3 1.9.6 1 .6 2 .1 2.3-.5.3-1.1-.1-1.5-.9-.3-.8-1.5-1.5-2.6-1.5s-2-.7-2-1.5-.8-1.5-1.7-1.5c-1.6-.1-6.6-3-5.1-3 .4 0-.7-1.3-2.3-3-1.7-1.6-2.8-3.4-2.4-4 .3-.5.2-1-.2-1-.5 0-1-2.9-1.1-6.4-.1-4.4-.8-7.5-2.2-9.9-1.2-1.9-2.5-5-3-6.8-.8-2.7-.6-3.6 1-5.1 1-1 2.3-2.5 2.8-3.5.8-1.4 1.4-1.5 3.5-.6 1.9.9 2.7.8 3.9-.3 1.2-1.2 2.4-1.3 5.7-.5 3.9.8 4.4.7 4.8-1 .6-2.3 1.1-2.4 3.4-.3zm14.9.4c0 .5-.2 1-.4 1-.3 0-.8-.5-1.1-1-.3-.6-.1-1 .4-1 .6 0 1.1.4 1.1 1zm-174.9 3.3c-1 .9-1.1.8-.5-.6.3-1 .9-1.5 1.2-1.2.3.3 0 1.1-.7 1.8zm6 2.7c.5 0 .9-.5.9-1 0-.6.9-1 2-1 2.2 0 2.3.1 1.5 2.2-.4.9-1.6 1.3-3.4 1-2.3-.3-3 .1-3.6 1.7-.8 2.5-2.5 2.8-2.5.5 0-1-.6-1.4-1.5-1.1-.8.4-1.7.2-2-.3-.4-.6-.1-1 .5-1s.8-.5.4-1.2c-.5-.8-.2-.9.9-.5 1 .3 1.7.2 1.7-.3 0-1.4 3.5-1.7 3.8-.3.2.7.8 1.3 1.3 1.3zm37.2-1.6c.3.8-.1 1.7-.9 2-.9.3-1.2 1.1-.8 1.7.5.9 1.1.7 1.9-.4 1.6-2.3 3.8-2.1 6.7.3 1.2 1.1 3.1 2.6 4.1 3.3 1.8 1.2 1.8 1.6.2 7.7-1.7 6.6-2.1 18.2-.8 20.3 1 1.6 1.1 10.7.1 10.1-.5-.3-.8.4-.8 1.5s.5 2.3 1 2.6c1.8 1.1 1.1 2.4-1.6 3.1-1.7.4-2.2 1-1.5 1.7.6.6.3 1.6-.9 3-1.1 1.1-1.7 2.3-1.5 2.7.3.4-.9 1.3-2.5 2-1.7.7-3 1.8-3 2.5s-.7 1.8-1.5 2.5c-1.2 1-1.3 1.6-.3 2.7 1 1.3.9 1.5-.6 1.2-1.8-.4-2.2-1.3-3-6.7-.5-3.9-2.5-5-4.5-2.6-.9 1.1-2.3 2.3-3.1 2.6-2 .6-4.9-2.2-4.2-4 .3-1 .1-1.3-.6-.8-.7.4-1.2 1.4-1.2 2.2 0 .8-.7 1.4-1.5 1.4s-1.5-.5-1.5-1c0-.6.5-1 1.2-1 .6 0 .2-1-1-2.3-2.7-2.9-2.8-3.7-.2-3.7 1.8 0 1.9-.2.8-2.3-1-1.9-1.3-2-1.6-.5-.5 2.4-1.4 2.3-4.1-.6-1.6-1.7-1.9-2.5-1-2.8.9-.3.7-1.3-.9-3.5-2.6-3.6-2.9-7.1-.7-8 1.4-.5 1.4-.8-.1-3.1s-1.5-2.6 0-3.4c2.1-1.2 2-3.4-.1-4.3-1.7-.6-1.7-.7-.1-1.6.9-.5 1.9-2.3 2.3-3.9.4-1.7 1.1-3 1.7-3 .6 0 .8-1 .4-2.4-.7-2.8.3-3.9 2.4-2.6 1.1.7 2.2.2 3.8-1.8l2.4-2.7-.4 2.4c-.2 1.8.2 2.5 1.9 2.7 2.1.3 2.2.1 1.2-2.3-.8-2.2-.7-3 .7-4 1-.7 2.1-1.3 2.6-1.3.4 0 .8-.6.8-1.4 0-.7.9-1.6 2.1-1.9 1.5-.4 1.9-.2 1.5.9-.3.9.1 1.4 1.4 1.4 2.3 0 2.6-1 .8-2.8-.9-.9-.8-1.2.5-1.2.9 0 1.7-.5 1.7-1 0-1.5 1.7-1.2 2.3.4zm140.7.6c0 .5-.2 1-.4 1-.3 0-.8-.5-1.1-1-.3-.6-.1-1 .4-1 .6 0 1.1.4 1.1 1zm-237.4 4.5c-.6 2.3-.4 2.6 2.1 2.3 2.1-.2 3 .3 3.8 1.9.5 1.3 1.4 2.3 1.9 2.3 1.9 0 3.5 3.7 3.6 8 0 2.4.7 6.4 1.6 8.7.9 2.4 1.4 4.6 1 5-1.3 1.3-5.9-1.3-7.5-4.2-.9-1.7-2.1-3.1-2.6-3.1-.6-.1-2-.5-3.2-.8-1.9-.6-2.2-.3-2 2 .3 4.4-2.1 4-4.3-.8-3.5-7.6-2-19.9 2.7-22.7 2.8-1.6 3.6-1.3 2.9 1.4zm68.4 0c0 .8-.7 1.5-1.5 1.5s-1.5-.7-1.5-1.5.7-1.5 1.5-1.5 1.5.7 1.5 1.5zm-6.6 1c-.6 1.6-2.4 2.1-2.4.7 0-1.1 1.1-2.2 2.1-2.2.5 0 .6.7.3 1.5zm-79 12 1.7 3-2-2.4c-1.2-1.3-2.1-2.8-2.1-3.4 0-1.2 0-1.1 2.4 2.8zm85.3-1.3c-.3.8-.6.5-.6-.6-.1-1.1.2-1.7.5-1.3.3.3.4 1.2.1 1.9zm110.1 11.9c.3 1.7-2.1 2.9-6.8 3.4-1.4.2-3.5.6-4.7 1-3.7 1.2-2.7-1.2 1.2-3.1 2-.9 3.8-2.1 4.1-2.6.9-1.5 5.9-.5 6.2 1.3zm-47.8 4.2c2.3.2 5.2 1.5 8.3 4 5 3.8 5.7 4 13.9 3.7 4-.1 4.9.2 6.4 2.5 1 1.5 1.8 3.8 1.9 5.2 0 1.3.6 2.8 1.3 3.2.7.4 1.5 2.5 1.7 4.6.3 2.1 1.2 4.6 2 5.5 2.1 2.3 2 2.6-3 6-2.5 1.7-4.5 2.8-4.5 2.4 0-.4-1.1.3-2.5 1.6-2.3 2.2-2.7 2.2-8.2 1.1-3.2-.7-7.3-1.4-9.2-1.7-1.9-.2-3.7-.7-4.1-.9-.5-.3-1 .2-1.4 1-.3.8-1.2 1.5-2.1 1.5-.8 0-1.5.3-1.5.7 0 .5-1.1.9-2.5.9-1.9.2-2.5-.3-2.5-1.8 0-1 .4-1.7.9-1.4.5.4 2.1.2 3.5-.4 2.3-.8 2.6-1.4 2.1-4.1-.3-1.8-.2-2.8.4-2.5.5.4 1.2.2 1.6-.4.3-.5.1-1-.4-1-.6 0-1.1-1-1.1-2.2 0-2.1.1-2.1 1.3-.4 1.3 1.8 1.4 1.8 2 .2.8-2.1 0-3.9-1.4-3.1-1.4.9-1.1-1.6.6-4.9 2-3.7 1.9-4.3-.5-4.9-2.1-.5-2.7-3.1-1-4.2 1.3-.8-1.4-6.1-3.6-6.9-.9-.4-2.4-.4-3.3-.1-2.3.7-5.6-1.8-4.6-3.4.4-.8 1.7-1 3.4-.6 1.4.3 4.2.7 6.1.8zm-120 14.1c0 .3-.4.8-1 1.1-.5.3-1 .1-1-.4 0-.6.5-1.1 1-1.1.6 0 1 .2 1 .4zm284.2 8.8c-.2 1-.8 1.5-1.3 1.2-1.1-.6-1.2-4.8-.2-5.8s2.1 2.4 1.5 4.6zm-6.5.1c.2 1.7.1 1.9-.7.7-1.1-1.7-1.4-4.7-.3-3.6.4.3.8 1.7 1 2.9zm-217 1.6c1 1.5.9 2-.2 2.5-.8.3-1.5.1-1.5-.3 0-.5-.3-1.6-.6-2.5-.9-2.2.9-2 2.3.3zm-50.4 2.5c.8 2.4.5 3.2-1.7 5.4-3.5 3.5-9.2 3.3-12.3-.6l-2.1-2.7 2.6-1.7c1.5-1 4.1-1.8 5.9-1.8 1.7 0 3.5-.5 3.8-1.1 1.1-1.6 2.8-.5 3.8 2.5zm151.2 34c1.8 1.3 1.7 1.4-1.3 3-1.7.9-3.5 1.7-3.9 1.8-2.9.5-4.3 1.2-4.3 2 0 .6-.7.5-1.5-.2s-1.5-2.5-1.5-4c0-2.5.3-2.8 3.6-2.8 1.9 0 3.8-.3 4.1-.6 1-1 2.8-.7 4.8.8zm-19.5.7c.3.1 1.3 0 2.3 0 2.7-.3 3.1 2.5.7 5.9l-2.2 3-1.8-2.2-1.9-2.3-.1 2.3c0 1.8-.3 2-1.7 1.3-1-.6-3.6-1.8-5.8-2.7-2.2-1-4.3-2.3-4.7-2.8-1.2-1.8.7-2.7 3.5-1.7 1.9.8 2.7.7 3.1-.4.4-1.2 5.7-1.5 8.6-.4zm7 6.5c0 .8-.4 1.2-1 .9-.5-.3-1-1-1-1.6 0-.5.5-.9 1-.9.6 0 1 .7 1 1.6zm-21 10.8c0 1.1-1.9 1.5-2.5.6-.3-.5.1-1 .9-1 .9 0 1.6.2 1.6.4zM479.3 521c1.8.1 5.5.9 8.4 1.8l5.1 1.8.6-3c.5-2.3.9-2.7 1.8-1.8 1.5 1.5 7.4 1.6 8.3.2.8-1.3 5.2-1.3 5.9-.1.4.5 2 .7 3.6.5 1.7-.3 3-.1 3 .4 0 .6 1.4.7 3.5.2 2.3-.5 3.5-.4 3.8.4.3.8.9.7 2.1-.3 1.4-1.2 2-1.1 3.9.8 2.5 2.3 4.7 2.8 4.7 1 0-.5.5-.7 1-.4 1.5.9 1.2 2.5-.5 2.5-.8 0-1.5.6-1.5 1.4 0 .8-.7 1.7-1.6 2-1.4.6-1.4.9.6 2.6 1.6 1.4 2.7 1.7 3.4 1 1.3-1.3 3.9-1.3 3.1-.1-.3.5 0 1.3.6 1.7.8.4.7.9-.2 1.6-1 .6-1 1.1-.3 1.4.6.3.9 1.6.6 2.9-.2 1.4-.9 2.2-1.4 1.9-1.5-1-2.9 1.8-1.6 3.3.8 1 .6 1.3-.5 1.3-.8 0-1.8.7-2.1 1.6-.5 1.3-.9 1.4-2 .5-1.1-1-1.7-.8-2.5.6-.9 1.7-1.1 1.7-2.5-.2s-6.6-2.9-6.6-1.3c0 .4-1 .4-2.2-.1-1.3-.4-2.9-.6-3.6-.4-.7.3-1.9-.1-2.7-.7-1.3-1.1-1.3-.7 0 2.4 1.5 3.6 1.5 3.6-.5 2.4-1.7-1.1-2.2-1-3 .2-.5.8-1.2 1.1-1.6.7-.4-.3-.1-1.4.7-2.3 1.3-1.6 1.2-1.7-1-1.1-1.4.3-3.1.1-3.9-.6-1.1-.9-1.7-.8-2.7.6-1.5 2.1-3.9 2.3-3.1.2.7-1.8-1-2-1.7-.3s-2.5-.8-3.4-4.5c-.7-3.5-2.9-2.9-2.5.7.1 1.4-.1 2.6-.5 2.7-.4 0-1.6.2-2.5.4-2 .4-4.3-2-3.3-3.5.3-.5-.2-1.3-1.2-1.6-5.1-1.6-6.6-2.5-5.6-3.5 1.7-1.7.3-4.9-2.1-4.9-1.8 0-2.1-.6-2.1-3.8 0-2.1.8-5 1.8-6.5.9-1.4 1.7-3.2 1.8-3.9 0-1 .2-1 .6-.1.2.7 1.9 1.3 3.6 1.3zm68.8 3.9c-.6 1-.6 2.3 0 3.2 1.5 2.4 1 3.3-.9 1.6-1.2-1.1-2.2-1.3-3.5-.6-2.2 1.3-3.7.4-3.7-2.2 0-2.1.7-2.3 3-.9.9.5 1.9.5 2.7-.2 1.9-1.5 1.6-2.8-.7-2.8-1.1 0-2-.4-2-.9 0-.6 1.2-.6 3 0 2.4.9 2.8 1.4 2.1 2.8zM543 534c0 .5-.4 1-1 1-.5 0-1-.5-1-1 0-.6.5-1 1-1 .6 0 1 .4 1 1zm-24.7 14.7c.4.3-.1 1.2-1.1 1.9-2.5 2-3.4 1.7-2-.6 1.3-2.1 2.1-2.4 3.1-1.3zM502 551c0 .5-.4 1-1 1-.5 0-1-.5-1-1 0-.6.5-1 1-1 .6 0 1 .4 1 1zm68.7 47.6c-.3.3-1.2.4-1.9.1-.8-.3-.5-.6.6-.6 1.1-.1 1.7.2 1.3.5zM455.5 603c1.6 0 2.5.6 2.5 1.5 0 1.5-1.6 2.1-2.2.7-.1-.4-1.6-1.4-3.2-2.2-1.6-.8-3.1-2.2-3.4-3-.3-.9.4-.6 1.7.7 1.2 1.3 3.3 2.3 4.6 2.3zm10.9 7.6c.3.8.2 1.2-.4.9-.6-.3-1-1-1-1.6 0-1.4.7-1.1 1.4.7zM530 614c0 .5-.5 1-1.1 1-.5 0-.7-.5-.4-1 .3-.6.8-1 1.1-1 .2 0 .4.4.4 1zm-55.9 4.7c1.3 1.7 1.3 1.7-.6.3-1.1-.8-2.2-1.6-2.4-1.7-.2-.2 0-.3.6-.3s1.7.8 2.4 1.7zm14.7 1.4c-1.9 1.2-2.2 1.1-3.5-1-1.2-1.9-1.1-1.9 1.8-.9 2.3.8 2.7 1.3 1.7 1.9z"/><path d="M455 89c0 .5.5 1 1.1 1 .5 0 .7-.5.4-1-.3-.6-.8-1-1.1-1-.2 0-.4.4-.4 1zM371.5 107c-1 1.1-1.6 2.2-1.3 2.5.3.3 1.3-.4 2.3-1.5 1-1.1 1.6-2.2 1.3-2.5-.3-.3-1.3.4-2.3 1.5zM493 283c0 .5.5 1 1.1 1 .5 0 .7-.5.4-1-.3-.6-.8-1-1.1-1-.2 0-.4.4-.4 1zM565 389.4c0 .2.7.7 1.6 1 .8.3 1.2.2.9-.4-.6-1-2.5-1.4-2.5-.6zM588.5 399c.3.5.8 1 1.1 1 .2 0 .4-.5.4-1 0-.6-.5-1-1.1-1-.5 0-.7.4-.4 1zM573.6 424.4c.7 1.9 3.8 2.2 3.2.3-.3-.6-1.2-1.3-2.1-1.5-1.2-.2-1.5.1-1.1 1.2zM570.5 427c.3.5.8 1 1.1 1 .2 0 .4-.5.4-1 0-.6-.5-1-1.1-1-.5 0-.7.4-.4 1zM426 410.9c0 .6.5 1.3 1 1.6.6.3 1-.1 1-.9 0-.9-.4-1.6-1-1.6-.5 0-1 .4-1 .9zM425.7 419.3c-.5 1.4.8 4.5 1.7 3.7.2-.3.6-1.4.8-2.4.4-2.2-1.7-3.3-2.5-1.3zM481 524.1c0 .5.5.7 1 .4.6-.3 1-.8 1-1.1 0-.2-.4-.4-1-.4-.5 0-1 .5-1 1.1zM496.5 528c-.4.7-.1 1.9.7 2.7 1.4 1.3 1.6 1.3 2.1 0 .7-2-1.8-4.3-2.8-2.7zM511 538.4c0 .2 1.1 1.5 2.4 2.9 2.1 2.3 2.5 2.4 2.9.8.3-1.2-.4-2.1-2.4-2.8-1.6-.6-2.9-1-2.9-.9zM485 544.6c0 .8.5 1.2 1 .9.6-.4.8-1.1.5-1.6-.9-1.4-1.5-1.1-1.5.7zM511 543.4c0 .2.7.9 1.5 1.6 1.2 1 1.5 1 1.5-.4 0-.9-.7-1.6-1.5-1.6s-1.5.2-1.5.4zM385.9 69c-1.3 1-1.9 1.9-1.3 2 .6 0 1.4-.3 1.8-.8.4-.4 2.2-1.2 3.9-1.9 3.1-1.1 3.1-1.1.6-1.2-1.5-.1-3.7.8-5 1.9zM425.6 70.8c.5.4 2.2 1.8 3.8 3.2l2.9 2.5-1.7-2.6c-.9-1.5-2.6-2.9-3.8-3.2-1.1-.3-1.7-.3-1.2.1zM460.5 71c2.8 1.2 3.7 1.2 3 0-.3-.6-1.6-1-2.8-.9-2.1 0-2.1.1-.2.9zM553.5 73c1.1.5 3.4.8 5 .8h3l-3-.8c-1.6-.4-3.9-.8-5-.8l-2-.1 2 .9zM376 75.8c-1.6 1.7-3 3.6-3 4.3 0 .7 1.7-.4 3.7-2.4 2-2.1 3.4-4 3-4.3-.3-.4-2 .7-3.7 2.4zM563.8 74.7c.6.2 1.8.2 2.5 0 .6-.3.1-.5-1.3-.5-1.4 0-1.9.2-1.2.5zM569 76c2 1.3 3.3 1.3 2.5 0-.3-.6-1.4-1-2.3-1-1.5 0-1.5.2-.2 1zM435.6 78.5c-1.7 1.3-1.8 1.7-.6 2.8.8.6 1.1.8.7.3-.4-.5 0-1.8 1-2.8 1.9-2.2 1.5-2.3-1.1-.3zM573 77.4c0 .3.9 1 2 1.6 1.1.6 2 .8 2 .6 0-.3-.9-1-2-1.6-1.1-.6-2-.8-2-.6zM551.4 80.8c1.1 1.2 1.9 1.3 2.7.5.7-.7.3-1.2-1.6-1.5-2.5-.5-2.5-.4-1.1 1zM369.2 83.5c-.9 2-.9 2.5.2 2.5 1.3 0 2.6-2 2.6-4.1 0-1.8-1.7-.8-2.8 1.6zM430 83.5c-.7.8-2.1 1.5-3.1 1.5-2.5 0-2.4 1.6.1 2.3 1.1.3 2 .1 2-.4s.8-.9 1.8-1c1.1 0 1.2-.2.4-.6-1-.4-1-.8-.1-1.9.6-.8.9-1.4.6-1.4-.2 0-1 .7-1.7 1.5zM585.7 88.7c1 1.8 2.1 3.3 2.6 3.3 1.4 0 .7-1.7-1.9-4.1l-2.6-2.4 1.9 3.2zM368.3 88.5c-.3.9-.3 1.8-.1 2.1.3.3.8-.4 1.1-1.6.6-2.3-.1-2.7-1-.5zM433 87.4c0 .2.7.9 1.5 1.6.9.7 1.5.8 1.5.2 0-.5-.7-1.2-1.5-1.6-.8-.3-1.5-.4-1.5-.2zM579.8 91.7c.7.3 1.6.2 1.9-.1.4-.3-.2-.6-1.3-.5-1.1 0-1.4.3-.6.6zM360.7 100.9c-.4 1.7-.3 2.1.5 1.3.5-.5.8-1.6.6-2.3-.3-.8-.7-.3-1.1 1zM569 100.1c0 .5.5.7 1 .4.6-.3 1-.8 1-1.1 0-.2-.4-.4-1-.4-.5 0-1 .5-1 1.1zM594.6 103.3c.3 1 .9 1.5 1.2 1.2.3-.3 0-1.1-.7-1.8-1-.9-1.1-.8-.5.6zM628 112c-2 .6-2.1.8-.5.8 1.1 0 2.9-.3 4-.8 2.5-1.1-.1-1.1-3.5 0zM48 331c0 .5.5 1 1 1 .6 0 1-.5 1-1 0-.6-.4-1-1-1-.5 0-1 .4-1 1zM39.2 349.5c0 1.6.2 2.2.5 1.2.2-.9.2-2.3 0-3-.3-.6-.5.1-.5 1.8zM70.8 360.7c.5 2.1.7 2.3 1 .9.2-1 0-2.2-.6-2.8-.6-.6-.7 0-.4 1.9zM75.1 359.6c0 1.1.3 1.4.6.6.3-.7.2-1.6-.1-1.9-.3-.4-.6.2-.5 1.3zM53.8 376.7c.6.2 1.8.2 2.5 0 .6-.3.1-.5-1.3-.5-1.4 0-1.9.2-1.2.5zM50.3 403.7c1.5.2 3.9.2 5.5 0 1.5-.2.2-.4-2.8-.4s-4.3.2-2.7.4zM15.5 435.3c3.5 3 4.6 10.4 2 14.3-1.4 2.2-2.2 2.5-5.1 2.1-3.9-.6-4.7.8-.9 1.5 3.2.7 6.6-1.1 8.3-4.2 2.7-5.2-1-16-5.5-16-.8 0-.3 1 1.2 2.3zM396.9 573.5c-3.5 5-10.7 12.8-19 20.5-24.2 22.7-26.6 24.3-54.9 38-14 6.8-28 13.7-31 15.3-8.4 4.6-25.1 14.7-28.5 17.2-1.6 1.3-19 10.2-38.5 19.8-27.9 13.8-38.6 18.5-50 22.2-8 2.6-16.5 5.7-19 7-2.5 1.3-6.2 2.6-8.4 3-2.9.5-5.2 2-9 5.8-6.1 6.2-10.1 14-12.7 25-1 4.5-3 12.9-4.4 18.7-3.1 12.9-5.2 26.8-6 38-1.4 22.8-2.5 44.2-3.1 61.1l-.6 18.6 6.8 8.4c15.6 19.4 30.3 35.5 48.1 52.9 49.6 48.5 104.4 85.2 166.9 111.9 42 17.9 82.2 29.7 126.4 37 30.6 5.1 45 6.3 79.6 6.8l32.1.5-.1-20.8c-.1-12 .5-25.5 1.2-31.7 1-7.7 1.1-11.2.3-12.1-.8-.9-.8-5.1-.1-14.2 2-26.1 3-39.2 4-50.4 1.9-22.2.5-79.7-2.4-104.6-1.7-13.5-10.7-52-16.6-69.9-2.1-6.6-5-17-6.4-23-3.4-14.5-8.6-46.1-9.2-55.5-.2-4.1-.9-9.8-1.5-12.7-.7-2.8-.9-5.7-.7-6.5.3-.7 2.8-2.1 5.5-3 10.9-3.8 12.4-4.7 11.4-6.6-1.2-2.3-14.5-16.7-20.4-22.1l-4.6-4.3-4.5 3.7c-2.4 2.1-4.7 3.8-5 3.9-1.1.2-6.6-3.8-6.6-4.8 0-.5.8-1.8 1.8-2.9 1.2-1.4 1.2-1.8.2-1.2-4.1 2.4-11.3 13.7-16.9 26.5-1.9 4.1-3.9 8.8-4.7 10.5-9.8 22.2-13.9 30.5-19.2 38.5-6.4 9.7-4.6 8.3 3.3-2.5 4.8-6.7 15-26 16.7-31.7.6-2.1 1.6-3.8 2.3-3.8 1.3 0 4.5 6.2 4.5 8.7 0 .9.7 2.4 1.5 3.3 1.3 1.4 1.2 4.5-.6 26-1.1 13.5-2.4 26.7-2.8 29.5-.5 2.7-3.6 12.6-7 21.8-12.1 33.3-12.7 37.9-15.2 107.2-.8 20.8-1 59.8-.7 111.9.3 44 .2 79.3-.2 78.5-2.3-4-10.3-46-15.9-82.9-2.3-14.6-7.4-46.5-11.5-71s-7.7-47-8.1-50c-.3-3-1-7.8-1.5-10.5-.5-2.8-1.2-7.3-1.5-10-.3-2.8-2.4-14.5-4.5-26-2.1-11.6-4.4-24.5-4.9-28.8-.6-4.2-2.6-14.8-4.5-23.5-5.6-25.3-10.2-51.5-13.2-75.1-.8-6.8-2.4-16.5-3.5-21.5s-2.4-12.3-2.9-16.1c-.5-3.9-1.2-8.1-1.5-9.5-.3-1.4-1-6.8-1.5-12-.6-5.2-1.5-13.1-2-17.6-1.4-11.4-1.2-21.7.5-30.9 1.7-8.7 1.9-14.4.7-27.5l-.7-8.5-5.6 8zm154.2 257.2c2.1 5.5 3.1 13.2 2.4 18-.9 6-1.8 4.1-3.4-7.3-.6-4.3-1.3-9.1-1.6-10.7-.2-1.5 0-2.7.5-2.7.6 0 1.5 1.2 2.1 2.7zm19.9 211c0 .5-.5 1.5-1 2.3-.8 1.2-1 1.1-1-.8 0-1.2.5-2.2 1-2.2.6 0 1 .3 1 .7zm.5 5.3c-.3.5-1.1 1-1.6 1-.6 0-.7-.5-.4-1 .3-.6 1.1-1 1.6-1 .6 0 .7.4.4 1zM561.7 603.5c.3.8.9 1.2 1.4.9 1.2-.7 1.1-1.1-.5-1.7-1-.4-1.3-.1-.9.8zM557.9 605.3c.7.7 1.4.8 2.1.1.6-.6.2-1-1.2-1.1-1.6-.2-1.8.1-.9 1zM522 616.7c.1 1.8 1.8 3.5 2.4 2.5.4-.6 1.4-.9 2.4-.6.9.3.6-.2-.8-1-2.8-1.7-4-2-4-.9zM519.4 619.6c.5 1.2.1 1.4-1.7.9-1.8-.5-1.9-.4-.5.5 2.1 1.3 4.8.3 4.1-1.6-.3-.8-1-1.4-1.5-1.4-.6 0-.7.7-.4 1.6zM535.5 621c-.3.5.1 1 .9 1 .9 0 1.6-.5 1.6-1 0-.6-.4-1-.9-1-.6 0-1.3.4-1.6 1zM502.5 623c.3.5 1.3 1 2.1 1s1.4-.5 1.4-1c0-.6-.9-1-2.1-1-1.1 0-1.7.4-1.4 1zM488.6 623.9c-.4.7-.1.9.8.5.8-.3 2.3-.1 3.4.5 1.3.7 2.9.8 4.4.2 2.2-.9 2.2-1 .2-1-1.2-.1-3.5-.4-5.2-.7-1.7-.3-3.2-.1-3.6.5zM557 627.3c-6.6 5.9-7.6 8.2-1.2 2.7 3.4-3 6.2-5.6 6.2-5.7 0-1-2 .2-5 3zM507.7 645.1c.7.7 1.5 1 1.8.7.3-.3-.2-.9-1.2-1.2-1.4-.6-1.5-.5-.6.5z"/><path d="M511 648.5c.7.8 1.7 1.5 2.2 1.5.6 0 .5-.7-.2-1.5s-1.7-1.5-2.2-1.5c-.6 0-.5.7.2 1.5zM520.7 659.4c-.6 1.5.1 2.6 1.5 2.6.4 0 .8-.9.8-2 0-2.3-1.5-2.7-2.3-.6zM1019.8 806.7c-.6 2.5.6 8 1.4 6.7.7-1 .3-7.3-.5-8.1-.3-.2-.6.4-.9 1.4z"/></svg>