
<svg xmlns="http://www.w3.org/2000/svg" width="878" height="902" viewBox="0 0 878 902" version="1.1"><path d="M 0.062 153.750 C 0.162 253.129, 0.567 308.162, 1.208 309.371 C 1.780 310.449, 1.802 310.996, 1.260 310.661 C 0.698 310.314, 0.231 314.858, 0.098 321.955 C -0.103 332.686, 0.050 333.875, 1.688 334.299 C 3.346 334.728, 3.351 334.778, 1.750 334.884 C 0.088 334.994, 0 349.211, 0 618.500 L 0 902 37.342 902 L 74.684 902 75.382 868.910 C 76.422 819.595, 78.564 799.314, 88.254 747 C 90.038 737.370, 90.446 732.433, 90.032 725.500 C 89.476 716.207, 90.274 680.475, 91.450 662 C 92.350 647.855, 94.710 631.020, 96.987 622.500 C 98.016 618.650, 99.382 612.800, 100.023 609.500 C 102.408 597.221, 110.731 584.972, 117.725 583.445 C 119.251 583.112, 123.425 581.589, 127 580.062 C 130.575 578.535, 137.478 576.056, 142.340 574.554 C 151.560 571.706, 203.126 546.780, 211 541.365 C 219.529 535.499, 236.556 526.261, 257 516.406 C 270.505 509.895, 279.547 504.858, 283.500 501.642 C 295.077 492.223, 312.669 475.127, 316.482 469.591 C 318.600 466.516, 320.437 464.112, 320.564 464.250 C 321.028 464.751, 322.294 479.583, 322.122 482.500 C 322.025 484.150, 321.349 489.190, 320.619 493.700 C 319.528 500.448, 319.519 504.522, 320.570 516.700 C 321.783 530.745, 324.779 551.588, 327.029 561.628 C 327.596 564.161, 329.151 574.168, 330.484 583.867 C 332.832 600.955, 334.612 610.981, 340.897 642.500 C 344.874 662.446, 350.386 694.093, 353.003 712 C 354.169 719.975, 357.374 740, 360.126 756.500 C 362.878 773, 366.909 798.200, 369.083 812.500 C 373.859 843.916, 381.317 881.441, 382.002 877.500 C 382.097 876.950, 382.285 839.825, 382.419 795 C 382.760 680.584, 383.115 675.831, 393.632 645.073 C 399.031 629.282, 400.469 623.761, 401.072 616.500 C 401.483 611.550, 402.321 601.548, 402.933 594.273 C 403.605 586.294, 403.689 580.343, 403.145 579.273 C 402.650 578.298, 401.522 575.813, 400.638 573.750 C 399.028 569.990, 397 568.718, 397 571.468 C 397 573.925, 385.212 596.333, 381.973 600.033 L 378.938 603.500 382.317 598 C 386.208 591.668, 391.724 580.136, 396.559 568.225 C 401.172 556.864, 406.603 547.083, 410.289 543.500 C 411.987 541.850, 412.824 541.242, 412.150 542.148 C 411.125 543.527, 411.359 544.137, 413.583 545.886 L 416.241 547.977 420.014 544.989 C 422.090 543.345, 424.096 542, 424.472 542 C 425.467 542, 440.204 557.074, 442.870 560.817 L 445.135 563.998 442.317 565.041 C 428.937 569.991, 429.412 569.609, 430.866 574.270 C 431.420 576.046, 432.064 580.650, 432.297 584.500 C 432.802 592.843, 438.433 626.207, 440.652 634 C 441.513 637.025, 443.510 643.550, 445.090 648.500 C 448.893 660.413, 456.571 692.555, 457.883 702.056 C 460.932 724.139, 461.495 774.323, 458.982 800 C 456.912 821.154, 456.054 837.361, 456.949 838.439 C 457.514 839.119, 457.321 844.170, 456.451 851.523 C 455.425 860.187, 455.210 868.825, 455.673 882.750 L 456.314 902 468.157 902 C 476.968 902, 479.999 901.680, 479.994 900.750 C 479.991 900.063, 481.789 883.975, 483.989 865 C 486.189 846.025, 488.922 822.175, 490.061 812 C 491.200 801.825, 492.981 786.525, 494.018 778 C 495.055 769.475, 496.376 757.100, 496.953 750.500 C 497.530 743.900, 498.695 731.525, 499.541 723 C 502.875 689.415, 504.030 676.721, 505.499 657.500 C 510.479 592.373, 512.304 575.967, 516.405 559.500 C 518.534 550.951, 518.940 546.743, 519.198 530.500 C 519.364 520.050, 519.136 507.296, 518.691 502.158 C 517.696 490.676, 513.850 477.012, 509.921 471.003 C 505.294 463.926, 502.392 457.122, 500.539 449 C 498.630 440.633, 496.309 434.501, 494.474 432.978 C 492.689 431.497, 491.922 436.574, 492.603 445.361 C 493.154 452.471, 493.056 452.886, 488.740 461.623 C 486.304 466.554, 482.996 472.369, 481.390 474.544 C 475.773 482.153, 459.008 500.026, 453.500 504.277 L 449.500 507.364 452.819 503.813 C 454.645 501.860, 456.259 499.440, 456.407 498.435 C 456.554 497.430, 457.261 496.413, 457.977 496.174 C 458.841 495.886, 459.014 496.205, 458.492 497.120 C 457.862 498.227, 457.970 498.256, 459.038 497.266 C 460.838 495.596, 461.003 491.860, 459.349 490.206 C 458.563 489.420, 458 489.304, 458 489.929 C 458 491.663, 456.184 491.154, 455.579 489.250 C 454.980 487.366, 449.927 486.471, 450.286 488.313 C 450.404 488.916, 450.050 489.457, 449.500 489.515 C 446.973 489.784, 440.912 493.066, 440.379 494.455 C 440.053 495.305, 438.908 496, 437.834 496 C 436.760 496, 436.152 496.437, 436.482 496.971 C 436.812 497.505, 435.826 498.240, 434.291 498.605 C 432.756 498.970, 430.712 499.953, 429.750 500.789 C 428.638 501.756, 428 501.889, 428 501.155 C 428 500.520, 428.402 500, 428.893 500 C 429.384 500, 430.025 499.377, 430.317 498.615 C 430.750 497.487, 430.319 497.431, 427.989 498.310 C 425.144 499.384, 424.594 500.834, 426.500 502.235 C 427.050 502.639, 426.461 502.976, 425.191 502.985 C 423.921 502.993, 423.116 502.622, 423.401 502.160 C 423.687 501.697, 421.668 501.366, 418.916 501.423 C 415.666 501.490, 413.581 502.048, 412.971 503.013 C 412.454 503.831, 412.024 503.987, 412.015 503.359 C 411.996 501.943, 404.911 500.957, 403.377 502.156 C 402.759 502.639, 401.568 502.771, 400.729 502.450 C 399.891 502.128, 398.600 502.513, 397.860 503.305 C 396.694 504.553, 396.285 504.482, 394.808 502.778 C 393.150 500.867, 392.987 500.861, 389.098 502.577 C 386.896 503.548, 385.323 504.713, 385.602 505.165 C 385.881 505.617, 384.882 505.885, 383.380 505.761 C 381.424 505.599, 380.355 504.751, 379.606 502.767 C 378.409 499.595, 376.924 498.994, 377.710 502 C 378.091 503.457, 377.727 504.022, 376.367 504.082 C 375.091 504.137, 375.506 504.604, 377.678 505.555 C 379.426 506.321, 381.949 507.971, 383.285 509.224 C 384.621 510.476, 387.240 512.803, 389.107 514.395 L 392.500 517.290 388.500 514.933 C 384.472 512.559, 373.754 504.983, 360.610 495.218 C 356.699 492.313, 351.700 488.739, 349.500 487.275 C 344.841 484.177, 334.609 472.806, 331 466.718 C 328.798 463.002, 328.499 461.343, 328.487 452.785 L 328.475 443.071 324.887 439.285 C 322.913 437.203, 320.613 434.468, 319.775 433.207 L 318.252 430.914 316.634 434.957 C 315.744 437.181, 314.776 439, 314.483 439 C 314.190 439, 313.512 437.848, 312.977 436.440 C 311.990 433.843, 310 433.922, 310 436.559 C 310 437.352, 309.599 438, 309.109 438 C 307.946 438, 307.135 431.034, 308.220 430.364 C 308.678 430.081, 308.949 429.321, 308.821 428.675 C 308.694 428.029, 309.567 424.575, 310.761 421 C 311.955 417.425, 312.787 412.837, 312.610 410.804 C 312.181 405.897, 309.998 400.787, 308.565 401.337 C 306.493 402.132, 304.201 399.490, 303.582 395.592 C 303.247 393.488, 302.714 391.346, 302.396 390.832 C 302.078 390.317, 301.704 387.665, 301.565 384.937 C 301.425 382.210, 301.101 379.768, 300.845 379.512 C 300.589 379.255, 297.334 378.614, 293.612 378.087 C 285.916 376.997, 282.376 375.086, 280.851 371.197 C 280.270 369.714, 278.513 365.575, 276.947 362 C 275.381 358.425, 273.590 353.700, 272.965 351.500 C 272.341 349.300, 269.792 343.371, 267.301 338.325 C 264.380 332.408, 262.634 327.436, 262.385 324.325 L 262 319.500 263.719 324.750 C 264.665 327.637, 265.885 330, 266.432 330 C 266.978 330, 268.414 331.238, 269.623 332.750 C 270.832 334.262, 272.133 335.191, 272.515 334.812 C 272.896 334.434, 272.885 328.521, 272.490 321.671 C 271.798 309.673, 271.681 309.175, 269.274 308.079 C 266.322 306.734, 264 308.100, 264 311.181 C 264 312.247, 263.550 312.840, 263 312.500 C 261.699 311.696, 261.706 303.417, 263.010 300.981 C 263.757 299.586, 263.519 297.975, 262.096 294.797 C 256.878 283.139, 254.134 276.088, 253.670 273.141 C 253.388 271.356, 252.754 269.356, 252.260 268.698 C 251.767 268.039, 251.281 266.205, 251.182 264.622 C 250.982 261.436, 248.047 251.572, 245.561 245.731 C 244.679 243.657, 243.755 239.588, 243.508 236.687 C 243.261 233.786, 242.337 228.057, 241.454 223.956 C 240.571 219.855, 239.730 214.321, 239.585 211.658 C 239.440 208.995, 238.739 206.457, 238.028 206.017 C 236.773 205.242, 236.816 203.171, 238.355 190 C 239.169 183.030, 244.389 173.705, 250.549 168.214 C 255.789 163.544, 256.251 162.815, 255.270 160.768 C 253.307 156.677, 253.228 155.537, 254.488 149.423 C 257.706 133.809, 264.317 124.456, 276.533 118.235 C 280.924 115.999, 281.741 114.766, 285.358 104.933 C 287.977 97.809, 291.737 90, 292.546 90 C 292.824 90, 292.295 91.463, 291.371 93.250 C 289.737 96.412, 289.742 96.459, 291.582 95 C 292.623 94.175, 294.380 92.653, 295.487 91.618 C 297.840 89.418, 311.037 83.065, 313.684 82.858 C 314.683 82.780, 313.700 82.394, 311.500 82 L 307.500 81.284 312.500 81.200 C 317.358 81.118, 327.009 82.588, 324 82.951 C 323.175 83.051, 324.750 83.890, 327.500 84.816 C 330.250 85.742, 332.950 86.786, 333.500 87.135 C 335.015 88.096, 343.187 89.389, 345.862 89.091 C 347.358 88.924, 347.978 89.227, 347.552 89.916 C 346.808 91.120, 351.631 93.343, 353.401 92.612 C 354.006 92.362, 353.600 92.115, 352.500 92.064 C 350.959 91.991, 350.817 91.769, 351.882 91.094 C 352.917 90.439, 352.352 89.815, 349.632 88.609 C 347.634 87.724, 344.382 86.284, 342.405 85.408 C 340.428 84.533, 337.953 84.040, 336.905 84.315 C 335.857 84.589, 335 84.405, 335 83.906 C 335 83.408, 333.398 83, 331.441 83 C 329.484 83, 328.134 82.593, 328.441 82.095 C 329.119 80.999, 335.857 81.693, 342 83.493 C 350.919 86.107, 351.064 86.102, 350.346 83.241 C 349.790 81.029, 349.961 80.771, 351.570 81.388 C 352.598 81.783, 353.111 81.778, 352.710 81.377 C 352.310 80.976, 352.982 79.584, 354.205 78.282 L 356.428 75.916 353.464 73.494 C 351.364 71.778, 350.974 71.061, 352.128 71.036 C 353.023 71.016, 354.294 70.351, 354.952 69.558 C 355.937 68.371, 355.423 67.746, 352.040 66.020 C 349.780 64.868, 347.477 64.205, 346.922 64.548 C 346.367 64.891, 345.370 64.732, 344.706 64.194 C 344.043 63.656, 342.825 63, 342 62.737 C 341.175 62.474, 341.760 62.418, 343.300 62.614 C 344.961 62.825, 345.852 62.569, 345.491 61.985 C 344.504 60.388, 345.727 60.805, 352.867 64.500 C 356.587 66.425, 360.613 68, 361.815 68 C 363.292 68, 364 68.613, 364 69.893 C 364 70.934, 364.739 72.069, 365.641 72.416 C 367.080 72.968, 367.111 72.828, 365.891 71.285 C 364.564 69.605, 364.615 69.604, 367 71.272 C 376.180 77.695, 377.634 78.407, 381.242 78.246 C 383.300 78.154, 386 77.537, 387.242 76.876 C 389.359 75.748, 389.407 75.787, 388 77.513 C 386.620 79.207, 386.652 79.270, 388.392 78.308 C 390.576 77.100, 394.268 77.758, 393.379 79.196 C 393.049 79.729, 394.144 79.460, 395.812 78.597 C 397.982 77.475, 398.953 77.360, 399.231 78.192 C 399.457 78.870, 400.158 79.020, 400.916 78.552 C 401.858 77.970, 401.901 77.557, 401.075 77.046 C 400.449 76.659, 401.948 76.456, 404.407 76.595 C 408.149 76.806, 408.779 76.587, 408.266 75.250 C 407.828 74.110, 408.087 73.819, 409.167 74.234 C 410 74.553, 411.316 74.364, 412.091 73.813 C 413.165 73.049, 413.025 72.953, 411.500 73.408 C 409.530 73.996, 409.529 73.983, 411.441 72.502 C 412.509 71.676, 414.309 71.036, 415.441 71.079 C 416.574 71.122, 416.938 71.385, 416.250 71.662 C 414.261 72.465, 414.885 74.322, 417.959 76.746 L 420.807 78.992 421.824 76.074 C 422.974 72.777, 424.837 71.563, 430.250 70.586 C 433.110 70.070, 434 70.239, 434 71.300 C 434 72.064, 434.874 73.481, 435.943 74.448 C 437.464 75.825, 437.627 76.486, 436.693 77.493 C 435.917 78.330, 435.276 78.421, 434.857 77.754 C 434.487 77.163, 433.745 77.607, 433.105 78.804 C 431.872 81.108, 432.375 81.677, 436.828 83.021 C 438.659 83.574, 438.910 83.855, 437.628 83.914 C 436.113 83.984, 435.984 84.276, 436.951 85.441 C 437.608 86.233, 438.692 86.672, 439.358 86.416 C 440.668 85.914, 445 89.464, 445 91.039 C 445 91.568, 445.337 91.902, 445.750 91.782 C 446.903 91.448, 452.062 93.721, 456.500 96.520 C 462.159 100.088, 463.007 100.393, 464.136 99.264 C 464.804 98.596, 464.657 97.139, 463.695 94.882 C 461.065 88.712, 455.491 84.064, 450.527 83.900 C 447.615 83.804, 447.595 83.774, 450 83.089 L 452.500 82.377 450.229 81.142 C 448.980 80.463, 447.546 80.163, 447.041 80.475 C 446.536 80.787, 445.731 80.342, 445.252 79.485 C 444.773 78.629, 443.058 77.534, 441.440 77.050 C 439.381 76.435, 439.100 76.147, 440.500 76.088 C 441.600 76.042, 445.994 77.803, 450.264 80.002 C 454.534 82.201, 458.809 84.032, 459.764 84.070 C 461.379 84.136, 461.376 84.189, 459.724 84.842 C 458.188 85.450, 458.491 86.073, 461.974 89.475 C 464.188 91.637, 466 93.902, 466 94.508 C 466 96.328, 472.841 103.216, 473.961 102.524 C 474.532 102.171, 475.039 100.671, 475.086 99.191 L 475.172 96.500 476.066 99.499 C 476.946 102.451, 479.414 105, 481.391 105 C 481.963 105, 481.881 104.481, 481.200 103.800 C 480.540 103.140, 480 101.907, 480 101.060 C 480 99.989, 480.773 100.354, 482.540 102.260 C 485.112 105.034, 487.730 106.048, 486.388 103.750 C 484.121 99.870, 475.521 90.970, 474.439 91.385 C 473.739 91.654, 472.910 91.208, 472.598 90.395 C 472.286 89.582, 470.561 88.278, 468.765 87.497 C 466.841 86.661, 466.228 86.062, 467.273 86.039 C 468.959 86.002, 468.961 85.865, 467.320 83.250 C 466.145 81.377, 467.032 81.935, 470.104 85 C 485.716 100.580, 490.319 104.470, 492.765 104.150 C 494.899 103.870, 495.053 104.027, 493.876 105.287 C 493.125 106.091, 491.893 106.513, 491.139 106.223 C 490.051 105.806, 489.991 106.115, 490.848 107.716 C 492.592 110.974, 497.451 111.340, 503.094 108.640 C 505.792 107.348, 508 106.690, 508 107.177 C 508 107.664, 507.328 108.321, 506.506 108.636 C 505.684 108.952, 505.250 109.596, 505.542 110.067 C 505.833 110.539, 503.961 111.998, 501.382 113.309 C 498.334 114.858, 497.120 115.956, 497.913 116.446 C 498.584 116.861, 499.346 116.987, 499.607 116.726 C 500.071 116.262, 502.595 118.231, 509.876 124.739 C 511.869 126.520, 513.656 127.514, 513.847 126.949 C 514.037 126.383, 515.705 128.047, 517.554 130.646 C 519.402 133.245, 521.608 135.761, 522.457 136.236 C 523.306 136.711, 524 137.647, 524 138.316 C 524 138.985, 526.362 140.953, 529.250 142.688 C 532.138 144.424, 535.400 146.672, 536.500 147.685 C 537.600 148.698, 539.475 149.970, 540.666 150.513 C 543.248 151.689, 554.085 161.097, 558.422 165.928 C 560.115 167.813, 563.862 171.779, 566.750 174.742 C 569.638 177.705, 572 180.550, 572 181.064 C 572 181.579, 572.429 182, 572.952 182 C 574.095 182, 581.060 196.471, 583.301 203.500 C 586.244 212.732, 587.310 220.819, 586.570 228.303 C 586.179 232.261, 585.441 240.900, 584.931 247.500 C 584.421 254.100, 583.631 263.550, 583.175 268.500 C 581.713 284.388, 582.438 302.445, 584.942 312.500 C 587.634 323.307, 587.303 327.162, 582.563 340.256 C 580.705 345.389, 578.942 350.918, 578.646 352.544 C 577.516 358.736, 576.900 361.566, 576.260 363.500 C 575.896 364.600, 575.557 365.725, 575.507 366 C 574.574 371.081, 570.179 380.465, 566.337 385.578 C 564.556 387.949, 563.581 391.629, 562.097 401.578 C 559.595 418.350, 557.942 425.307, 556.057 427 C 555.018 427.933, 552.982 431.482, 550.032 437.500 C 548.415 440.800, 545.046 445.972, 542.546 448.993 C 540.046 452.014, 537.952 454.939, 537.893 455.493 C 537.835 456.047, 537.838 458.975, 537.901 462 C 538.067 470.013, 541.570 476.277, 551.776 486.808 L 560.500 495.809 577 502.646 C 586.075 506.406, 601.825 513.696, 612 518.845 C 622.175 523.994, 633.425 529.112, 637 530.219 C 640.575 531.326, 648.632 534.214, 654.904 536.637 C 661.176 539.060, 671.167 542.139, 677.106 543.480 C 683.045 544.821, 690.063 547, 692.702 548.322 C 695.341 549.645, 699.300 551.296, 701.500 551.991 C 703.700 552.686, 708.032 554.305, 711.127 555.588 C 718.265 558.549, 729.810 561.139, 737.323 561.466 C 746.514 561.866, 751.796 567.220, 756.091 580.490 C 758.783 588.805, 758.869 588.927, 762.517 589.589 C 764.080 589.872, 765.677 590.300, 766.064 590.539 C 766.451 590.779, 769.974 591.429, 773.894 591.985 C 784.391 593.474, 789.701 597.142, 792.467 604.817 C 793.396 607.393, 794.508 610.400, 794.939 611.500 C 796.064 614.370, 797.619 619.700, 799.096 625.750 C 799.801 628.638, 800.686 631, 801.061 631 C 801.437 631, 802.042 629.140, 802.405 626.866 C 803.104 622.495, 803.774 622.232, 804.508 626.041 C 804.753 627.313, 805.429 628.647, 806.010 629.006 C 806.591 629.365, 807.295 633.223, 807.573 637.580 C 807.892 642.564, 808.615 646.038, 809.526 646.950 C 810.788 648.216, 810.707 648.683, 808.891 650.616 C 807.113 652.509, 806.834 653.971, 806.972 660.666 C 807.062 664.974, 807.259 669.850, 807.411 671.500 C 807.563 673.150, 807.757 676.567, 807.843 679.093 C 807.985 683.250, 808.332 683.864, 811.500 685.570 C 815.302 687.618, 816.257 689.534, 812.952 688.485 C 809.797 687.483, 808 689.710, 808 694.622 L 808 699 811.941 699 C 814.109 699, 816.190 699.498, 816.566 700.107 C 817.016 700.835, 816.591 701.005, 815.323 700.602 C 814.223 700.253, 812.558 700.667, 811.448 701.566 C 809.614 703.048, 809.735 703.109, 813.500 702.606 L 817.500 702.072 815 704.020 C 813.625 705.091, 811.712 706.230, 810.750 706.551 C 808.696 707.236, 808.519 710.203, 810.145 716.662 L 811.290 721.209 815.145 720.593 C 819.787 719.851, 820.279 721.450, 816.500 725 C 813.872 727.469, 813.378 730.372, 814.932 734.203 C 815.445 735.466, 816.633 739.200, 817.571 742.500 C 818.510 745.800, 819.853 750.525, 820.557 753 C 826.133 772.621, 827.110 775, 829.589 775 C 831.718 775, 832 775.449, 832 778.833 C 832 784.016, 832.853 784.510, 835.377 780.787 C 837.799 777.212, 840 776.084, 840 778.417 C 840 779.287, 839.560 780, 839.023 780 C 836.877 780, 834.517 785.655, 833.913 792.248 C 833.275 799.205, 834.045 804.442, 837.478 816.500 C 838.987 821.800, 848.358 862.452, 849.581 869 C 849.837 870.375, 850.936 876.225, 852.023 882 C 853.853 891.727, 854.766 897.621, 854.933 900.782 C 854.984 901.764, 857.742 901.998, 866.750 901.782 L 878.500 901.500 878.716 450.750 L 878.931 0 439.419 0 L -0.092 0 0.062 153.750 M 0.485 127.500 C 0.485 197.350, 0.604 225.778, 0.750 190.672 C 0.896 155.567, 0.896 98.417, 0.750 63.672 C 0.604 28.928, 0.485 57.650, 0.485 127.500 M 327.083 57.375 C 327.313 57.581, 330.200 58.009, 333.500 58.327 C 337.387 58.701, 338.620 58.604, 337 58.052 C 334.534 57.211, 326.274 56.647, 327.083 57.375 M 327.629 65.208 C 327.959 65.743, 326.691 67.827, 324.811 69.840 C 322.931 71.853, 320.762 74.400, 319.993 75.500 C 319.223 76.600, 321.121 74.853, 324.209 71.617 C 328.938 66.662, 330.245 65.814, 332.488 66.243 C 334.439 66.615, 334.855 66.455, 334.042 65.642 C 332.658 64.258, 326.796 63.862, 327.629 65.208 M 355.434 71.107 C 354.674 72.337, 356.946 75.185, 358.321 74.726 C 358.883 74.539, 359.409 73.489, 359.490 72.392 C 359.645 70.285, 356.548 69.304, 355.434 71.107 M 299.807 72.750 C 296.761 76.296, 296.785 77.412, 299.845 74.563 C 301.580 72.948, 303 71.485, 303 71.313 C 303 70.381, 301.112 71.231, 299.807 72.750 M 426.136 73.073 C 424.432 73.755, 423.917 74.577, 424.293 76.012 C 424.614 77.239, 424.177 78.376, 423.157 78.972 C 422.238 79.508, 422.043 79.953, 422.719 79.970 C 423.389 79.986, 423.678 80.675, 423.362 81.500 C 422.962 82.541, 423.431 83, 424.893 83 C 426.052 83, 427 82.550, 427 82 C 427 81.450, 427.828 81, 428.839 81 C 429.854 81, 431.215 79.825, 431.873 78.380 C 432.924 76.073, 432.866 75.837, 431.392 76.403 C 430.008 76.934, 429.930 76.789, 430.945 75.567 C 433.373 72.640, 430.691 71.249, 426.136 73.073 M 360 77.680 C 360 78.145, 359.017 78.970, 357.816 79.513 C 355.364 80.621, 354.566 84.896, 356.660 85.700 C 357.397 85.983, 358 86.818, 358 87.557 C 358 89.537, 360.691 90.699, 364.113 90.197 C 366.301 89.876, 366.961 89.342, 366.537 88.236 C 366.054 86.978, 366.216 86.935, 367.477 87.981 C 369.934 90.020, 369.240 87.840, 365.750 82.556 C 362.741 78.001, 360 75.676, 360 77.680 M 340 79.954 C 337.807 80.514, 337.725 80.679, 339.336 81.298 C 340.346 81.686, 341.866 81.615, 342.714 81.140 C 344.835 79.953, 343.052 79.174, 340 79.954 M 299.250 84.115 C 294.703 87.027, 295.201 87.373, 300.250 84.810 C 305.472 82.159, 305.686 81.996, 303.917 82.017 C 303.137 82.026, 301.038 82.970, 299.250 84.115 M 314.500 86 C 314.127 86.604, 315.490 87, 317.941 87 C 320.173 87, 322 86.550, 322 86 C 322 85.450, 320.452 85, 318.559 85 C 316.666 85, 314.840 85.450, 314.500 86 M 384.598 85.842 C 383.749 87.215, 385.158 91, 386.519 91 C 387.226 91, 388.242 89.744, 388.778 88.208 C 389.654 85.693, 389.520 85.396, 387.425 85.223 C 386.146 85.117, 384.874 85.396, 384.598 85.842 M 307.500 87.225 C 303.931 88.495, 300.078 91, 301.695 91 C 303.241 91, 312 87.206, 312 86.536 C 312 85.815, 311.058 85.960, 307.500 87.225 M 320 89.107 C 320 90.173, 325.372 90.890, 326.911 90.030 C 327.828 89.516, 326.867 89.102, 324.161 88.844 C 321.872 88.626, 320 88.744, 320 89.107 M 304.021 92.116 C 302.657 92.660, 300.744 93.826, 299.771 94.708 C 298.797 95.589, 298 95.937, 298 95.481 C 298 93.909, 292.868 99.476, 291.542 102.485 C 288.684 108.972, 288.867 109.353, 293.033 105.589 C 295.274 103.564, 298.208 101.407, 299.554 100.794 C 300.899 100.181, 302 99.345, 302 98.937 C 302 98.529, 303.350 97.725, 305 97.150 C 306.650 96.575, 308 95.432, 308 94.611 C 308 93.790, 308.526 92.793, 309.170 92.395 C 309.942 91.918, 310.135 92.205, 309.739 93.237 C 309.348 94.258, 309.811 94.979, 311.071 95.308 C 312.133 95.586, 312.771 95.438, 312.487 94.979 C 311.863 93.970, 315.613 92.643, 316.878 93.424 C 317.370 93.729, 318.329 93.308, 319.009 92.489 C 320.084 91.194, 319.349 91.008, 313.372 91.063 C 309.593 91.098, 305.384 91.572, 304.021 92.116 M 445 94.500 C 444.007 95.697, 444.007 96.303, 445 97.500 C 446.615 99.446, 448.382 99.438, 447.634 97.488 C 447.174 96.291, 447.621 96.097, 449.777 96.557 L 452.500 97.139 450.139 95.070 C 447.325 92.602, 446.638 92.526, 445 94.500 M 484 106.466 C 484 107.344, 487.404 111, 488.222 111 C 489.833 111, 488.909 109.170, 486.500 107.592 C 485.125 106.691, 484 106.184, 484 106.466 M 495.041 117.750 C 495.018 118.438, 495.450 119, 496 119 C 496.550 119, 497 119.620, 497 120.378 C 497 121.864, 499.755 124.578, 500.503 123.830 C 500.754 123.580, 499.636 121.828, 498.020 119.937 C 496.404 118.047, 495.063 117.063, 495.041 117.750 M 270.309 130.466 C 266.326 132.198, 260.492 139.892, 262.010 141.410 C 262.746 142.146, 264.179 141.337, 266.781 138.718 C 268.826 136.659, 271.512 134.009, 272.750 132.829 C 276.673 129.088, 275.682 128.129, 270.309 130.466 M 252.200 169.200 C 250.754 170.646, 250.640 172, 251.965 172 C 252.495 172, 253.411 171.100, 254 170 C 255.179 167.797, 254.088 167.312, 252.200 169.200 M 246.059 175.653 C 244.911 177.112, 244.164 178.498, 244.399 178.733 C 245.188 179.521, 250 175.786, 250 174.385 C 250 172.218, 248.341 172.752, 246.059 175.653 M 401.638 230.696 C 401.255 231.078, 400.393 231.518, 399.721 231.674 C 394.549 232.872, 386.200 236.442, 386.412 237.365 C 386.555 237.989, 386.483 238.162, 386.253 237.750 C 385.548 236.490, 382.291 236.891, 371.961 239.510 C 366.515 240.890, 361.646 241.903, 361.142 241.760 C 359.952 241.423, 354 248.848, 354 250.669 C 354 252.574, 355.604 253.002, 368.316 254.482 C 369.865 254.662, 371.986 255.582, 373.029 256.526 C 374.072 257.470, 375.585 257.990, 376.391 257.680 C 377.276 257.341, 379.369 258.678, 381.678 261.058 C 383.780 263.225, 386.014 264.999, 386.641 264.999 C 387.269 265, 388.544 266.913, 389.475 269.250 C 393.744 279.976, 397.382 282.348, 398.527 275.153 C 398.847 273.144, 399.535 270.719, 400.055 269.764 C 400.575 268.809, 401 267.326, 401 266.468 C 401 265.611, 402.231 263.692, 403.735 262.205 C 405.239 260.717, 406.497 259.050, 406.530 258.500 C 406.564 257.950, 407.200 257.635, 407.945 257.800 C 408.689 257.965, 410.019 257.778, 410.899 257.386 C 411.780 256.994, 412.725 256.633, 413 256.585 C 413.275 256.536, 414.919 255.485, 416.654 254.248 C 418.389 253.012, 420.704 252, 421.797 252 C 422.891 252, 424.045 251.325, 424.362 250.500 C 424.678 249.675, 425.626 249, 426.469 249 C 427.311 249, 428.900 248.100, 430 247 C 431.566 245.434, 432 245.328, 432 246.508 C 432 247.767, 432.332 247.810, 434 246.768 C 436.321 245.318, 436.726 242.784, 434.500 243.638 C 433.532 244.010, 433 243.616, 433 242.528 C 433 241.174, 432.408 240.971, 430 241.500 C 428.350 241.862, 427 241.742, 427 241.232 C 427 240.722, 425.588 240.264, 423.863 240.215 C 422.138 240.166, 420.248 239.648, 419.663 239.063 C 419.078 238.478, 417.002 237.993, 415.050 237.985 C 411.025 237.967, 408.443 236.710, 409.366 235.217 C 410.251 233.785, 407.800 233.074, 403.337 233.468 C 401.227 233.655, 400.288 233.593, 401.250 233.330 C 402.212 233.068, 403 232.211, 403 231.427 C 403 229.840, 402.670 229.663, 401.638 230.696 M 366.443 235.418 C 365.376 236.198, 364.852 237.186, 365.279 237.613 C 365.706 238.040, 367.043 237.401, 368.250 236.194 C 370.696 233.748, 369.455 233.215, 366.443 235.418 M 433.950 274.261 C 432.548 275.493, 430.605 277.469, 429.632 278.654 C 427.865 280.807, 427.868 280.810, 435.058 282.445 C 439.015 283.345, 442.472 283.861, 442.741 283.592 C 443.011 283.323, 442.074 282.067, 440.661 280.801 C 439.247 279.536, 437.733 277.043, 437.295 275.261 L 436.500 272.023 433.950 274.261 M 0.355 284.500 C 0.352 289.450, 0.521 291.601, 0.731 289.280 C 0.940 286.959, 0.943 282.909, 0.736 280.280 C 0.530 277.651, 0.358 279.550, 0.355 284.500 M 355 281.365 C 355 282.666, 354.100 284.874, 353 286.273 C 350.300 289.705, 350.458 290.030, 354.250 288.845 C 356.038 288.286, 359.525 287.270, 362 286.586 L 366.500 285.342 363.427 283.737 C 361.737 282.854, 359.770 281.427, 359.055 280.566 C 357.121 278.235, 355 278.653, 355 281.365 M 331.659 283.825 C 330.746 284.833, 330 285.966, 330 286.343 C 330 287.627, 336.490 290.993, 338.973 290.996 L 341.445 291 339.137 289.383 C 337.867 288.494, 336.039 286.467, 335.073 284.879 C 333.385 282.104, 333.253 282.063, 331.659 283.825 M 533.574 283.881 C 532.617 285.428, 534.239 309.970, 535.257 309.341 C 535.780 309.018, 537.052 306.896, 538.082 304.627 C 540.173 300.023, 540.703 288.183, 538.965 284.934 C 537.905 282.955, 534.551 282.299, 533.574 283.881 M 521.887 286.500 C 520.573 288.653, 519.988 293, 521.012 293 C 521.590 293, 522.309 292.358, 522.610 291.573 C 523.325 289.710, 522.682 285.198, 521.887 286.500 M 541.962 290.191 C 541.895 296.070, 540.876 301.348, 538.412 308.575 C 535.113 318.251, 535.452 318.753, 539.711 310.500 C 542.677 304.755, 543.406 302.135, 543.783 295.884 C 544.085 290.873, 543.858 288.030, 543.121 287.575 C 542.382 287.118, 541.987 288.009, 541.962 290.191 M 522.150 297.750 C 520.967 300.096, 520.531 302.249, 520.987 303.500 C 521.734 305.552, 520.339 309.925, 518.520 311.235 C 517.959 311.639, 516.600 311.976, 515.500 311.984 C 513.648 311.998, 513.500 312.671, 513.500 321.062 C 513.500 329.076, 513.659 329.885, 514.872 328.062 C 515.627 326.928, 516.829 326, 517.544 326 C 518.259 326, 520.410 324.171, 522.323 321.936 C 524.691 319.170, 526.041 318.257, 526.548 319.078 C 527.054 319.897, 527.756 319.404, 528.728 317.549 C 530.393 314.371, 529.627 305.769, 527.488 303.630 C 526.763 302.906, 526.203 301.680, 526.243 300.906 C 526.441 297.063, 525.899 294, 525.020 294 C 524.482 294, 523.190 295.688, 522.150 297.750 M 0.286 303.500 C 0.294 306.250, 0.488 307.256, 0.718 305.736 C 0.947 304.216, 0.941 301.966, 0.704 300.736 C 0.467 299.506, 0.279 300.750, 0.286 303.500 M 393.485 306.054 C 392.393 307.697, 391.639 309.737, 391.810 310.589 C 391.980 311.442, 390.800 314.245, 389.188 316.819 C 387.575 319.394, 385.007 324.749, 383.481 328.721 L 380.707 335.942 383.103 337.961 C 388.167 342.227, 395.594 345.168, 400.159 344.715 C 406.202 344.114, 407.468 343.402, 410.417 338.946 C 412.969 335.090, 414.077 328.217, 411.933 329.542 C 411.345 329.905, 410.619 329.257, 410.316 328.101 C 410.014 326.945, 409.175 326, 408.451 326 C 407.727 326, 406.849 325.100, 406.500 324 C 406.139 322.861, 404.987 322, 403.826 322 C 402.371 322, 401.961 321.543, 402.397 320.407 C 402.805 319.345, 402.341 318.640, 401.004 318.291 C 398.708 317.690, 398.449 315.861, 400.250 312.956 C 401.202 311.419, 401.220 310.764, 400.322 310.205 C 399.674 309.801, 399.224 308.646, 399.322 307.637 C 399.420 306.629, 398.593 305.188, 397.485 304.436 C 395.663 303.199, 395.280 303.354, 393.485 306.054 M 279.229 312.664 C 281.473 316.466, 283.535 317.125, 282.630 313.750 C 282.299 312.512, 282.021 311.215, 282.014 310.867 C 282.006 310.518, 280.934 310.029, 279.630 309.780 L 277.260 309.327 279.229 312.664 M 467.413 310.635 C 467.688 311.350, 467.502 312.190, 467 312.500 C 466.498 312.810, 466.341 313.725, 466.651 314.532 C 467.283 316.181, 465.465 316.561, 464.490 314.984 C 464.144 314.425, 463.378 314.266, 462.787 314.632 C 462.196 314.997, 460.427 315.260, 458.856 315.215 C 457.285 315.170, 456 315.554, 456 316.067 C 456 316.580, 456.450 317, 457 317 C 457.550 317, 458 317.520, 458 318.155 C 458 318.809, 457.131 318.524, 455.996 317.497 C 454.654 316.282, 452.510 315.706, 449.499 315.751 C 447.028 315.789, 444.753 315.410, 444.444 314.910 C 444.135 314.409, 443.346 314.007, 442.691 314.015 C 441.969 314.025, 442.090 314.425, 443 315.034 C 444.290 315.896, 444.219 316.203, 442.500 317.221 C 441.400 317.873, 439.375 318.324, 438 318.224 C 436.281 318.099, 434.774 318.972, 433.176 321.019 L 430.851 323.996 433.440 329.649 C 436.073 335.400, 437.090 344.651, 435.678 350 C 435.315 351.375, 435.277 351.938, 435.593 351.250 C 435.908 350.563, 436.894 350, 437.783 350 C 439.041 350, 439.133 350.267, 438.200 351.200 C 436.430 352.970, 436.736 354, 439.031 354 C 440.149 354, 441.321 354.672, 441.636 355.494 C 441.952 356.316, 442.599 356.748, 443.075 356.453 C 444.058 355.846, 449.641 358.503, 450.160 359.824 C 450.759 361.350, 455.987 362.179, 456.115 360.769 C 456.179 360.071, 456.335 359.050, 456.463 358.500 C 456.591 357.950, 456.764 356.969, 456.848 356.320 C 456.955 355.490, 457.891 355.395, 460 356 C 461.650 356.473, 463 356.494, 463 356.047 C 463 355.599, 463.945 354.986, 465.101 354.684 C 466.257 354.381, 466.905 353.655, 466.542 353.067 C 465.486 351.359, 466.954 349.717, 468.437 350.948 C 470.321 352.511, 472.472 349.516, 474.506 342.500 C 476.401 335.962, 476.860 326.180, 475.320 325.147 C 474.058 324.302, 472.630 320.840, 472.886 319.250 C 473.003 318.525, 472.020 318, 470.544 318 C 469.145 318, 468 317.502, 468 316.893 C 468 316.284, 468.661 316.040, 469.468 316.349 C 470.275 316.659, 471.202 316.482, 471.527 315.956 C 471.852 315.430, 471.641 315, 471.059 315 C 469.553 315, 469.749 313.394, 471.463 311.680 C 472.748 310.395, 472.559 310.162, 469.920 309.775 C 467.740 309.455, 467.051 309.691, 467.413 310.635 M 0.374 323.500 C 0.376 329.550, 0.541 331.896, 0.740 328.713 C 0.939 325.531, 0.937 320.581, 0.736 317.713 C 0.535 314.846, 0.372 317.450, 0.374 323.500 M 322.900 316.083 C 321.776 316.794, 321.845 316.972, 323.250 316.985 C 324.212 316.993, 325 317.423, 325 317.941 C 325 319.438, 322.843 320.364, 322.112 319.181 C 321.736 318.573, 320.879 318.457, 320.139 318.914 C 319.169 319.513, 319.370 319.864, 320.915 320.268 C 323.818 321.027, 323.516 322.645, 320.250 323.838 C 318.738 324.390, 318.063 324.878, 318.750 324.921 C 319.438 324.964, 320.029 326.012, 320.063 327.250 L 320.127 329.500 321.055 327.186 C 321.565 325.913, 322.468 325.171, 323.060 325.537 C 323.652 325.903, 323.922 326.760, 323.661 327.442 C 323.399 328.124, 323.577 329.316, 324.056 330.091 C 324.788 331.274, 325.205 331.223, 326.658 329.770 C 328.261 328.168, 328.520 328.161, 330.194 329.675 C 331.866 331.189, 332 331.187, 332 329.655 C 332 327.854, 334.502 327.385, 335.500 329 C 335.840 329.550, 336.793 330, 337.618 330 C 338.443 330, 338.857 329.578, 338.538 329.061 C 338.219 328.545, 338.755 327.634, 339.729 327.037 C 341.032 326.237, 341.096 326.023, 339.970 326.225 C 339.129 326.376, 338.342 326.163, 338.220 325.750 C 338.099 325.337, 338.225 325, 338.500 325 C 338.775 325, 339.675 325, 340.500 325 C 341.325 325, 342 325.822, 342 326.826 C 342 329.203, 337.459 333.552, 336.536 332.059 C 336.165 331.459, 335.436 331.231, 334.915 331.553 C 334.394 331.875, 334.207 332.526, 334.500 333 C 334.793 333.474, 334.553 334.158, 333.968 334.520 C 333.236 334.972, 333.224 335.565, 333.931 336.417 C 334.583 337.202, 334.637 338.780, 334.078 340.729 C 333.593 342.419, 333.330 347.443, 333.493 351.895 C 333.661 356.480, 333.401 359.748, 332.895 359.435 C 332.403 359.131, 332 359.632, 332 360.548 C 332 361.610, 332.538 362.008, 333.485 361.644 C 335.429 360.898, 337 363.919, 337 368.403 C 337 371.194, 337.328 371.811, 338.560 371.339 C 339.609 370.936, 340.307 371.456, 340.691 372.927 C 341.045 374.280, 341.799 374.908, 342.669 374.573 C 343.443 374.277, 344.339 374.721, 344.661 375.560 C 345.168 376.880, 345.467 376.895, 346.874 375.674 C 347.768 374.897, 349.749 374.038, 351.275 373.764 C 353.494 373.367, 353.948 373.591, 353.543 374.884 C 353.211 375.945, 353.957 376.929, 355.718 377.750 C 359.316 379.428, 361.065 379.334, 360.362 377.500 C 360.045 376.675, 360.242 376, 360.799 376 C 361.357 376, 361.589 375.143, 361.315 374.096 C 360.971 372.783, 361.466 371.987, 362.909 371.529 C 364.059 371.164, 365 370.518, 365 370.093 C 365 369.668, 366.125 368.808, 367.500 368.182 C 368.875 367.555, 370 366.358, 370 365.521 C 370 364.667, 370.876 364, 372 364 C 374.404 364, 374.510 363.367, 372.452 361.310 C 370.526 359.383, 371.396 358.254, 373.476 359.980 C 374.314 360.676, 375.056 360.965, 375.125 360.622 C 375.194 360.280, 375.313 359.663, 375.390 359.250 C 375.467 358.837, 375.888 357.938, 376.324 357.250 C 376.777 356.537, 376.663 356, 376.059 356 C 375.477 356, 375 356.450, 375 357 C 375 357.550, 374.325 358, 373.500 358 C 372.675 358, 372 357.351, 372 356.557 C 372 355.764, 371.030 353.470, 369.844 351.459 C 367.276 347.107, 367.001 341.653, 368.947 333.644 C 370.355 327.850, 370.344 327.768, 367.935 325.951 C 366.596 324.941, 365.500 323.526, 365.500 322.807 C 365.500 322.088, 364.938 321.444, 364.250 321.375 C 363.563 321.306, 362.580 321.194, 362.066 321.125 C 361.553 321.056, 361.338 319.865, 361.590 318.477 C 362.010 316.162, 361.880 316.058, 360.024 317.217 C 358.911 317.912, 358 318.823, 358 319.241 C 358 319.658, 357.212 320.014, 356.250 320.032 C 354.232 320.068, 351 322.288, 351 323.638 C 351 324.594, 346.573 328.751, 346.404 327.954 C 346.351 327.704, 345.491 328.175, 344.494 329 C 342.761 330.434, 342.749 330.369, 344.233 327.532 C 345.643 324.834, 345.638 324.456, 344.180 323.390 C 342.828 322.401, 342.785 321.964, 343.910 320.608 C 344.792 319.545, 344.864 319, 344.122 319 C 343.505 319, 343 319.434, 343 319.965 C 343 320.495, 342.067 321.429, 340.926 322.040 C 339.207 322.959, 338.770 322.837, 338.375 321.325 C 338 319.891, 336.957 319.517, 333.505 319.579 C 330.271 319.638, 328.477 319.070, 326.706 317.428 C 325.070 315.911, 323.852 315.480, 322.900 316.083 M 277.731 316.603 C 277.399 316.934, 277.503 318.193, 277.962 319.401 C 278.479 320.760, 278.207 324.226, 277.247 328.506 C 275.554 336.053, 276.473 342.655, 279.715 346.238 C 281.235 347.918, 281.377 347.906, 282.712 346.001 C 284.532 343.403, 285.387 343.478, 288.409 346.500 C 289.784 347.875, 291.830 349, 292.955 349 C 295.349 349, 295.433 348.382, 293.500 345 C 292.714 343.625, 292.055 340.444, 292.035 337.930 C 292.009 334.493, 291.443 332.854, 289.750 331.317 C 285.901 327.820, 282.505 323.065, 282.387 321.007 C 282.202 317.755, 279.311 315.022, 277.731 316.603 M 266.427 333.750 C 268.827 338.215, 271.986 342.583, 271.993 341.446 C 272.001 340.190, 266.285 331, 265.496 331 C 265.195 331, 265.614 332.238, 266.427 333.750 M 0.493 618.500 C 0.493 774.700, 0.609 838.451, 0.750 760.169 C 0.891 681.887, 0.891 554.087, 0.750 476.169 C 0.609 398.251, 0.493 462.300, 0.493 618.500 M 517.496 338.007 C 517.153 338.561, 517.596 339.292, 518.480 339.631 C 520.394 340.365, 521.461 339.556, 520.541 338.067 C 519.711 336.723, 518.306 336.696, 517.496 338.007 M 470.154 339.552 C 470.345 340.532, 471.105 341.536, 471.846 341.782 C 472.706 342.069, 473.066 341.588, 472.846 340.448 C 472.655 339.468, 471.895 338.464, 471.154 338.218 C 470.294 337.931, 469.934 338.412, 470.154 339.552 M 417.090 344.998 C 409.923 349.039, 411.345 350.201, 420.605 347.869 C 423.869 347.047, 425.012 346.296, 424.788 345.119 C 424.348 342.812, 421.059 342.760, 417.090 344.998 M 378.693 347.688 C 377.659 349.360, 379.487 350.834, 383.009 351.169 L 386.500 351.500 386.520 357 C 386.530 360.025, 386.865 363.015, 387.264 363.645 C 387.665 364.279, 387.321 365.047, 386.494 365.364 C 384.717 366.046, 384.503 368.668, 386.180 369.227 C 386.914 369.471, 387.075 370.353, 386.606 371.560 C 385.882 373.421, 385.774 373.405, 383.938 371.154 L 382.024 368.808 381.012 371.469 C 379.729 374.843, 379.734 376, 381.030 376 C 381.596 376, 381.093 377.307, 379.912 378.905 C 377.546 382.106, 378.047 384.485, 380.796 383.102 C 389.435 378.754, 393.005 378.217, 400.589 380.127 C 404.255 381.050, 405.373 380.990, 406.781 379.794 C 407.727 378.992, 410.168 377.573, 412.208 376.641 C 416.972 374.463, 417.527 373.453, 415.586 370.491 C 414.714 369.160, 414 367.255, 414 366.258 C 414 365.261, 413.341 363.504, 412.535 362.354 C 411.730 361.204, 411.306 360.027, 411.595 359.739 C 411.883 359.450, 411.269 357.629, 410.231 355.692 C 408.827 353.073, 407.979 352.401, 406.922 353.070 C 404.918 354.338, 398.272 354.216, 395.747 352.865 C 394.581 352.240, 392.725 350.890, 391.624 349.865 C 390.524 348.839, 388.920 347.995, 388.061 347.989 C 387.203 347.983, 384.870 347.708, 382.877 347.379 C 380.885 347.049, 379.002 347.188, 378.693 347.688 M 282 349.977 C 282 350.540, 282.450 351, 283 351 C 283.550 351, 284 351.675, 284 352.500 C 284 354.140, 285.555 354.530, 286.432 353.109 C 286.735 352.620, 285.862 351.484, 284.491 350.586 C 283.121 349.688, 282 349.414, 282 349.977 M 6.625 358.285 C 5.656 358.993, 4.615 361.452, 4.305 363.764 C 3.331 371.022, 8.455 375.898, 13.549 372.560 C 15.607 371.211, 16 370.156, 16 365.977 C 16 358.587, 11.387 354.803, 6.625 358.285 M 289.329 357.807 C 287.439 358.993, 284.873 366.359, 285.492 368.822 C 285.927 370.558, 285.745 370.974, 284.790 370.423 C 284.081 370.014, 284.850 371.089, 286.500 372.812 C 291.358 377.884, 300 377.039, 300 371.491 C 300 370.331, 299.374 368.526, 298.608 367.479 C 297.443 365.885, 296.962 365.787, 295.652 366.874 C 294.792 367.588, 293.627 367.888, 293.064 367.540 C 292.502 367.192, 291.093 367.415, 289.935 368.035 C 287.335 369.426, 286.544 368.783, 287.858 366.347 C 288.406 365.331, 289.106 363.691, 289.414 362.703 C 289.728 361.695, 290.731 361.036, 291.700 361.203 C 292.770 361.387, 293.578 360.739, 293.822 359.500 C 294.039 358.400, 293.872 357.834, 293.450 358.241 C 293.029 358.649, 292.178 358.562, 291.558 358.049 C 290.939 357.535, 289.936 357.426, 289.329 357.807 M 7.631 359.280 C 3.868 362.032, 6.228 373, 10.584 373 C 14.661 373, 16.534 364.635, 13.443 360.223 C 11.670 357.691, 10.144 357.443, 7.631 359.280 M 516.068 364.950 C 516.016 367.580, 516.278 368.122, 517.167 367.233 C 518.031 366.369, 518.048 365.470, 517.235 363.783 C 516.202 361.639, 516.131 361.710, 516.068 364.950 M 412 396.137 C 409.525 396.642, 405.137 396.796, 402.250 396.479 C 398.609 396.079, 397 396.257, 397 397.060 C 397 397.775, 396.102 397.992, 394.648 397.627 C 393.355 397.302, 392.021 397.312, 391.684 397.650 C 390.849 398.484, 392.904 402.177, 393.871 401.580 C 394.295 401.318, 396.099 401.990, 397.881 403.074 C 401.151 405.063, 403.531 404.858, 402.442 402.681 C 402.117 402.031, 402.560 402.374, 403.426 403.441 C 404.984 405.363, 405.015 405.363, 406.468 403.441 C 407.295 402.348, 407.950 402.046, 407.968 402.750 C 408.006 404.245, 411.616 404.431, 412.510 402.984 C 412.856 402.425, 413.557 402.226, 414.069 402.543 C 414.581 402.859, 415 402.416, 415 401.559 C 415 400.558, 415.905 400, 417.531 400 C 420.411 400, 422.003 397.249, 419.896 395.914 C 418.290 394.898, 418.042 394.905, 412 396.137 M 382.787 408.875 C 380.875 409.573, 381.756 411.944, 384.100 412.413 C 384.870 412.567, 386.850 413.294, 388.500 414.028 C 392.442 415.783, 394.815 415.960, 398.264 414.758 C 400.870 413.850, 400.974 413.629, 399.546 412.051 C 398.691 411.106, 397.431 410.298, 396.746 410.255 C 394.168 410.093, 385.544 408.838, 385.033 408.550 C 384.740 408.385, 383.729 408.532, 382.787 408.875 M 385.287 424.344 C 385 424.808, 383.683 424.981, 382.359 424.728 C 381.035 424.475, 379.711 424.658, 379.417 425.134 C 379.123 425.610, 378.009 426, 376.941 426 C 374.944 426, 374.634 426.772, 374.979 430.886 C 375.089 432.198, 374.576 433.654, 373.839 434.120 C 372.841 434.753, 372.818 434.973, 373.750 434.985 C 374.438 434.993, 375 435.734, 375 436.632 C 375 438.302, 378.459 444.507, 380.641 446.750 C 381.310 447.438, 382.564 448, 383.429 448 C 384.293 448, 385 448.402, 385 448.893 C 385 450.427, 388.298 451.134, 389.155 449.784 C 389.754 448.840, 389.973 448.963, 389.985 450.250 C 389.999 451.908, 392.751 452.622, 396.894 452.042 C 397.660 451.934, 398.707 452.443, 399.220 453.173 C 399.950 454.213, 400.262 454.229, 400.659 453.250 C 400.938 452.563, 401.606 452, 402.142 452 C 402.679 452, 402.866 452.408, 402.558 452.907 C 402.249 453.405, 402.898 453.578, 403.999 453.290 C 405.099 453.002, 406 452.314, 406 451.761 C 406 451.193, 406.653 451.297, 407.500 452 C 408.325 452.685, 409.007 452.852, 409.015 452.372 C 409.024 451.893, 409.411 452.100, 409.876 452.834 C 410.529 453.864, 411.187 453.578, 412.755 451.584 C 415.067 448.645, 416 448.333, 416 450.500 C 416 452.198, 417.566 452.511, 418.500 451 C 418.840 450.450, 418.641 450, 418.059 450 C 417.477 450, 417 449.454, 417 448.786 C 417 448.038, 417.672 448.243, 418.750 449.322 C 420.260 450.833, 420.299 451.197, 419.029 451.982 C 418.220 452.482, 417.818 453.151, 418.136 453.469 C 419.102 454.436, 422 452.879, 422 451.393 C 422 450.627, 422.900 450, 424 450 C 425.100 450, 426 449.530, 426 448.956 C 426 448.382, 426.563 447.985, 427.250 448.075 C 429.793 448.405, 431.101 447.972, 430.500 447 C 430.160 446.450, 430.359 446, 430.941 446 C 432.640 446, 435.895 442.268, 436.581 439.532 C 436.929 438.147, 437.615 437.262, 438.107 437.566 C 439.327 438.320, 439.235 435.307, 437.965 432.934 C 437.099 431.316, 437.263 431, 438.965 431 C 440.084 431, 441 430.550, 441 430 C 441 429.450, 440.550 429, 440 429 C 439.450 429, 439 428.325, 439 427.500 C 439 426.675, 438.325 426, 437.500 426 C 436.675 426, 436 425.590, 436 425.088 C 436 423.174, 432.484 424.787, 432.180 426.841 C 431.817 429.296, 430.210 429.712, 429.386 427.564 C 429.056 426.703, 427.365 426.092, 425.168 426.038 C 423.150 425.988, 420.825 425.901, 420 425.844 C 419.175 425.787, 416.813 426.073, 414.750 426.481 C 412.688 426.889, 410.999 426.835, 410.998 426.361 C 410.996 425.305, 402.464 425.206, 401.418 426.250 C 401.005 426.663, 399.954 426.993, 399.083 426.985 C 397.790 426.972, 397.754 426.809, 398.883 426.093 C 399.895 425.453, 399.357 425.002, 396.883 424.415 C 392.345 423.339, 385.933 423.300, 385.287 424.344 M 430.792 439.676 C 431.763 440.066, 431.804 440.532, 430.956 441.553 C 430.335 442.301, 430.148 443.430, 430.539 444.063 C 431.056 444.899, 431.485 444.843, 432.110 443.857 C 433.578 441.539, 433.121 438.995, 431.250 439.079 C 430.137 439.129, 429.970 439.347, 430.792 439.676 M 356 488 C 356.825 488.533, 357.134 488.976, 356.687 488.985 C 356.240 488.993, 357.140 490.298, 358.687 491.884 C 360.234 493.470, 361.777 494.606, 362.116 494.408 C 362.455 494.209, 363.493 494.888, 364.423 495.915 C 365.466 497.067, 366.954 497.600, 368.307 497.305 C 370.079 496.918, 370.212 497.032, 369 497.898 C 368.175 498.487, 367.950 498.982, 368.500 498.998 C 369.050 499.014, 370.519 499.300, 371.765 499.634 C 373.537 500.109, 373.899 499.902, 373.431 498.682 C 373.102 497.824, 371.558 496.842, 370 496.500 C 368.442 496.158, 366.935 495.273, 366.651 494.533 C 366.367 493.794, 364.850 492.906, 363.280 492.562 C 361.710 492.217, 359.592 490.824, 358.573 489.467 C 357.554 488.110, 356.220 487.007, 355.610 487.015 C 354.999 487.024, 355.175 487.467, 356 488 M 437.032 672.709 C 436.963 675.308, 439.299 689.579, 440.012 690.918 C 441.450 693.617, 442.185 686.208, 441.031 680.652 C 439.999 675.676, 437.105 669.930, 437.032 672.709 M 858.694 783.750 C 858.397 785.263, 858.569 786.928, 859.077 787.450 C 859.646 788.036, 860 786.981, 860 784.700 C 860 780.321, 859.446 779.918, 858.694 783.750 M 870.015 787.405 C 870 792.194, 870.046 792.268, 871.937 790.557 C 873.002 789.593, 874.352 789.100, 874.937 789.461 C 875.522 789.822, 876 789.678, 876 789.141 C 876 788.603, 876.251 787.510, 876.557 786.711 C 876.864 785.912, 876.437 784.998, 875.608 784.680 C 874.550 784.274, 874.279 784.563, 874.697 785.652 C 875.024 786.504, 874.663 787.600, 873.896 788.086 C 871.719 789.464, 870.815 789.160, 871.410 787.250 C 871.709 786.288, 871.522 784.825, 870.992 784 C 870.303 782.924, 870.026 783.888, 870.015 787.405" stroke="none" fill="#d0d8ea" fill-rule="evenodd"/><path d="M 327.083 57.375 C 327.313 57.581, 330.200 58.009, 333.500 58.327 C 337.387 58.701, 338.620 58.604, 337 58.052 C 334.534 57.211, 326.274 56.647, 327.083 57.375 M 345.491 61.985 C 345.852 62.569, 344.961 62.825, 343.300 62.614 C 341.760 62.418, 341.175 62.474, 342 62.737 C 342.825 63, 344.043 63.656, 344.706 64.194 C 345.370 64.732, 346.367 64.891, 346.922 64.548 C 347.477 64.205, 349.780 64.868, 352.040 66.020 C 355.423 67.746, 355.937 68.371, 354.952 69.558 C 354.294 70.351, 353.023 71.016, 352.128 71.036 C 350.974 71.061, 351.364 71.778, 353.464 73.494 L 356.428 75.916 354.205 78.282 C 352.982 79.584, 352.310 80.976, 352.710 81.377 C 353.111 81.778, 352.598 81.783, 351.570 81.388 C 349.961 80.771, 349.790 81.029, 350.346 83.241 C 351.064 86.102, 350.919 86.107, 342 83.493 C 335.857 81.693, 329.119 80.999, 328.441 82.095 C 328.134 82.593, 329.484 83, 331.441 83 C 333.398 83, 335 83.408, 335 83.906 C 335 84.405, 335.857 84.589, 336.905 84.315 C 337.953 84.040, 340.428 84.533, 342.405 85.408 C 344.382 86.284, 347.634 87.724, 349.632 88.609 C 352.352 89.815, 352.917 90.439, 351.882 91.094 C 350.817 91.769, 350.959 91.991, 352.500 92.064 C 353.600 92.115, 354.006 92.362, 353.401 92.612 C 351.631 93.343, 346.808 91.120, 347.552 89.916 C 347.978 89.227, 347.358 88.924, 345.862 89.091 C 343.187 89.389, 335.015 88.096, 333.500 87.135 C 332.950 86.786, 330.250 85.742, 327.500 84.816 C 324.750 83.890, 323.175 83.051, 324 82.951 C 327.009 82.588, 317.358 81.118, 312.500 81.200 L 307.500 81.284 311.500 82 C 313.700 82.394, 314.683 82.780, 313.684 82.858 C 311.037 83.065, 297.840 89.418, 295.487 91.618 C 294.380 92.653, 292.623 94.175, 291.582 95 C 289.742 96.459, 289.737 96.412, 291.371 93.250 C 292.295 91.463, 292.824 90, 292.546 90 C 291.737 90, 287.977 97.809, 285.358 104.933 C 281.741 114.766, 280.924 115.999, 276.533 118.235 C 270.332 121.392, 266.500 124.647, 262.307 130.314 C 258.115 135.980, 256.390 140.195, 254.488 149.423 C 253.228 155.537, 253.307 156.677, 255.270 160.768 C 256.251 162.815, 255.789 163.544, 250.549 168.214 C 244.389 173.705, 239.169 183.030, 238.355 190 C 236.816 203.171, 236.773 205.242, 238.028 206.017 C 238.739 206.457, 239.440 208.995, 239.585 211.658 C 239.730 214.321, 240.571 219.855, 241.454 223.956 C 242.337 228.057, 243.261 233.786, 243.508 236.687 C 243.755 239.588, 244.679 243.657, 245.561 245.731 C 248.047 251.572, 250.982 261.436, 251.182 264.622 C 251.281 266.205, 251.767 268.039, 252.260 268.698 C 252.754 269.356, 253.388 271.356, 253.670 273.141 C 254.134 276.088, 256.878 283.139, 262.096 294.797 C 263.519 297.975, 263.757 299.586, 263.010 300.981 C 261.706 303.417, 261.699 311.696, 263 312.500 C 263.550 312.840, 264 312.247, 264 311.181 C 264 308.100, 266.322 306.734, 269.274 308.079 C 271.681 309.175, 271.798 309.673, 272.490 321.671 C 272.885 328.521, 272.896 334.434, 272.515 334.812 C 272.133 335.191, 270.832 334.262, 269.623 332.750 C 268.414 331.238, 266.978 330, 266.432 330 C 265.885 330, 264.665 327.637, 263.719 324.750 L 262 319.500 262.385 324.325 C 262.634 327.436, 264.380 332.408, 267.301 338.325 C 269.792 343.371, 272.341 349.300, 272.965 351.500 C 273.590 353.700, 275.381 358.425, 276.947 362 C 278.513 365.575, 280.270 369.714, 280.851 371.197 C 282.376 375.086, 285.916 376.997, 293.612 378.087 C 297.334 378.614, 300.589 379.255, 300.845 379.512 C 301.101 379.768, 301.425 382.210, 301.565 384.937 C 301.704 387.665, 302.078 390.317, 302.396 390.832 C 302.714 391.346, 303.247 393.488, 303.582 395.592 C 304.201 399.490, 306.493 402.132, 308.565 401.337 C 309.998 400.787, 312.181 405.897, 312.610 410.804 C 312.787 412.837, 311.955 417.425, 310.761 421 C 309.567 424.575, 308.694 428.029, 308.821 428.675 C 308.949 429.321, 308.678 430.081, 308.220 430.364 C 307.135 431.034, 307.946 438, 309.109 438 C 309.599 438, 310 437.352, 310 436.559 C 310 433.922, 311.990 433.843, 312.977 436.440 C 313.512 437.848, 314.190 439, 314.483 439 C 314.776 439, 315.744 437.181, 316.634 434.957 L 318.252 430.914 319.775 433.207 C 320.613 434.468, 322.913 437.203, 324.887 439.285 L 328.475 443.071 328.487 452.785 C 328.499 461.343, 328.798 463.002, 331 466.718 C 334.609 472.806, 344.841 484.177, 349.500 487.275 C 351.700 488.739, 356.699 492.313, 360.610 495.218 C 373.754 504.983, 384.472 512.559, 388.500 514.933 L 392.500 517.290 389.107 514.395 C 387.240 512.803, 384.621 510.476, 383.285 509.224 C 381.949 507.971, 379.426 506.321, 377.678 505.555 C 375.506 504.604, 375.091 504.137, 376.367 504.082 C 377.727 504.022, 378.091 503.457, 377.710 502 C 376.924 498.994, 378.409 499.595, 379.606 502.767 C 380.355 504.751, 381.424 505.599, 383.380 505.761 C 384.882 505.885, 385.881 505.617, 385.602 505.165 C 385.323 504.713, 386.896 503.548, 389.098 502.577 C 392.987 500.861, 393.150 500.867, 394.808 502.778 C 396.285 504.482, 396.694 504.553, 397.860 503.305 C 398.600 502.513, 399.891 502.128, 400.729 502.450 C 401.568 502.771, 402.759 502.639, 403.377 502.156 C 404.911 500.957, 411.996 501.943, 412.015 503.359 C 412.024 503.987, 412.454 503.831, 412.971 503.013 C 413.581 502.048, 415.666 501.490, 418.916 501.423 C 421.668 501.366, 423.687 501.697, 423.401 502.160 C 423.116 502.622, 423.921 502.993, 425.191 502.985 C 426.461 502.976, 427.050 502.639, 426.500 502.235 C 424.594 500.834, 425.144 499.384, 427.989 498.310 C 430.319 497.431, 430.750 497.487, 430.317 498.615 C 430.025 499.377, 429.384 500, 428.893 500 C 428.402 500, 428 500.520, 428 501.155 C 428 501.889, 428.638 501.756, 429.750 500.789 C 430.712 499.953, 432.756 498.970, 434.291 498.605 C 435.826 498.240, 436.812 497.505, 436.482 496.971 C 436.152 496.437, 436.760 496, 437.834 496 C 438.908 496, 440.053 495.305, 440.379 494.455 C 440.912 493.066, 446.973 489.784, 449.500 489.515 C 450.050 489.457, 450.404 488.916, 450.286 488.313 C 449.927 486.471, 454.980 487.366, 455.579 489.250 C 456.184 491.154, 458 491.663, 458 489.929 C 458 489.304, 458.563 489.420, 459.349 490.206 C 461.003 491.860, 460.838 495.596, 459.038 497.266 C 457.970 498.256, 457.862 498.227, 458.492 497.120 C 459.014 496.205, 458.841 495.886, 457.977 496.174 C 457.261 496.413, 456.554 497.430, 456.407 498.435 C 456.259 499.440, 454.645 501.860, 452.819 503.813 L 449.500 507.364 453.500 504.277 C 459.008 500.026, 475.773 482.153, 481.390 474.544 C 482.996 472.369, 486.304 466.554, 488.740 461.623 C 493.056 452.886, 493.154 452.471, 492.603 445.361 C 491.922 436.574, 492.689 431.497, 494.474 432.978 C 496.309 434.501, 498.630 440.633, 500.539 449 C 502.392 457.122, 505.294 463.926, 509.921 471.003 C 513.850 477.012, 517.696 490.676, 518.691 502.158 C 519.136 507.296, 519.364 520.050, 519.198 530.500 C 518.940 546.743, 518.534 550.951, 516.405 559.500 C 512.304 575.967, 510.479 592.373, 505.499 657.500 C 504.030 676.721, 502.875 689.415, 499.541 723 C 498.695 731.525, 497.530 743.900, 496.953 750.500 C 496.376 757.100, 495.055 769.475, 494.018 778 C 492.981 786.525, 491.200 801.825, 490.061 812 C 488.922 822.175, 486.189 846.025, 483.989 865 C 481.789 883.975, 479.991 900.063, 479.994 900.750 C 479.999 901.746, 518.177 902, 667.537 902 L 855.074 902 854.529 897.250 C 854.229 894.638, 853.098 887.775, 852.016 882 C 850.933 876.225, 849.837 870.375, 849.581 869 C 848.358 862.452, 838.987 821.800, 837.478 816.500 C 834.045 804.442, 833.275 799.205, 833.913 792.248 C 834.517 785.655, 836.877 780, 839.023 780 C 839.560 780, 840 779.288, 840 778.417 C 840 776.084, 837.799 777.212, 835.377 780.787 C 832.853 784.510, 832 784.016, 832 778.833 C 832 775.449, 831.718 775, 829.589 775 C 827.067 775, 826.263 773.025, 820.428 752.500 C 816.714 739.436, 815.804 736.411, 814.920 734.203 C 813.380 730.357, 813.877 727.464, 816.500 725 C 820.279 721.450, 819.787 719.851, 815.145 720.593 L 811.290 721.209 810.145 716.662 C 808.519 710.203, 808.696 707.236, 810.750 706.551 C 811.712 706.230, 813.625 705.091, 815 704.020 L 817.500 702.072 813.500 702.606 C 809.735 703.109, 809.614 703.048, 811.448 701.566 C 812.558 700.667, 814.223 700.253, 815.323 700.602 C 816.591 701.005, 817.016 700.835, 816.566 700.107 C 816.190 699.498, 814.109 699, 811.941 699 L 808 699 808 694.622 C 808 689.710, 809.797 687.483, 812.952 688.485 C 816.257 689.534, 815.302 687.618, 811.500 685.570 C 808.332 683.864, 807.985 683.250, 807.843 679.093 C 807.757 676.567, 807.563 673.150, 807.411 671.500 C 807.259 669.850, 807.062 664.974, 806.972 660.666 C 806.834 653.971, 807.113 652.509, 808.891 650.616 C 810.707 648.683, 810.788 648.216, 809.526 646.950 C 808.615 646.038, 807.892 642.564, 807.573 637.580 C 807.295 633.223, 806.591 629.365, 806.010 629.006 C 805.429 628.647, 804.753 627.313, 804.508 626.041 C 803.774 622.232, 803.104 622.495, 802.405 626.866 C 802.042 629.140, 801.437 631, 801.061 631 C 800.686 631, 799.801 628.638, 799.096 625.750 C 797.619 619.700, 796.064 614.370, 794.939 611.500 C 794.508 610.400, 793.396 607.393, 792.467 604.817 C 789.701 597.142, 784.391 593.474, 773.894 591.985 C 769.974 591.429, 766.451 590.779, 766.064 590.539 C 765.677 590.300, 764.080 589.872, 762.517 589.589 C 758.869 588.927, 758.783 588.805, 756.091 580.490 C 751.796 567.220, 746.514 561.866, 737.323 561.466 C 729.810 561.139, 718.265 558.549, 711.127 555.588 C 708.032 554.305, 703.700 552.686, 701.500 551.991 C 699.300 551.296, 695.341 549.645, 692.702 548.322 C 690.063 547, 683.045 544.821, 677.106 543.480 C 671.167 542.139, 661.176 539.060, 654.904 536.637 C 648.632 534.214, 640.575 531.326, 637 530.219 C 633.425 529.112, 622.175 523.994, 612 518.845 C 601.825 513.696, 586.075 506.406, 577 502.646 L 560.500 495.809 551.776 486.808 C 541.570 476.277, 538.067 470.013, 537.901 462 C 537.838 458.975, 537.835 456.047, 537.893 455.493 C 537.952 454.939, 540.046 452.014, 542.546 448.993 C 545.046 445.972, 548.415 440.800, 550.032 437.500 C 552.982 431.482, 555.018 427.933, 556.057 427 C 557.942 425.307, 559.595 418.350, 562.097 401.578 C 563.581 391.629, 564.556 387.949, 566.337 385.578 C 570.179 380.465, 574.574 371.081, 575.507 366 C 575.557 365.725, 575.896 364.600, 576.260 363.500 C 576.900 361.566, 577.516 358.736, 578.646 352.544 C 578.942 350.918, 580.705 345.389, 582.563 340.256 C 587.303 327.162, 587.634 323.307, 584.942 312.500 C 582.438 302.445, 581.713 284.388, 583.175 268.500 C 583.631 263.550, 584.421 254.100, 584.931 247.500 C 585.441 240.900, 586.179 232.261, 586.570 228.303 C 587.310 220.819, 586.244 212.732, 583.301 203.500 C 581.060 196.471, 574.095 182, 572.952 182 C 572.429 182, 572 181.579, 572 181.064 C 572 180.550, 569.638 177.705, 566.750 174.742 C 563.862 171.779, 560.115 167.813, 558.422 165.928 C 554.085 161.097, 543.248 151.689, 540.666 150.513 C 539.475 149.970, 537.600 148.698, 536.500 147.685 C 535.400 146.672, 532.138 144.424, 529.250 142.688 C 526.362 140.953, 524 138.985, 524 138.316 C 524 137.647, 523.306 136.711, 522.457 136.236 C 521.608 135.761, 519.402 133.245, 517.554 130.646 C 515.705 128.047, 514.037 126.383, 513.847 126.949 C 513.656 127.514, 511.869 126.520, 509.876 124.739 C 502.595 118.231, 500.071 116.262, 499.607 116.726 C 499.346 116.987, 498.584 116.861, 497.913 116.446 C 497.120 115.956, 498.334 114.858, 501.382 113.309 C 503.961 111.998, 505.833 110.539, 505.542 110.067 C 505.250 109.596, 505.684 108.952, 506.506 108.636 C 507.328 108.321, 508 107.664, 508 107.177 C 508 106.690, 505.792 107.348, 503.094 108.640 C 497.451 111.340, 492.592 110.974, 490.848 107.716 C 489.991 106.115, 490.051 105.806, 491.139 106.223 C 491.893 106.513, 493.125 106.091, 493.876 105.287 C 495.053 104.027, 494.899 103.870, 492.765 104.150 C 490.319 104.470, 485.716 100.580, 470.104 85 C 467.032 81.935, 466.145 81.377, 467.320 83.250 C 468.961 85.865, 468.959 86.002, 467.273 86.039 C 466.228 86.062, 466.841 86.661, 468.765 87.497 C 470.561 88.278, 472.286 89.582, 472.598 90.395 C 472.910 91.208, 473.739 91.654, 474.439 91.385 C 475.521 90.970, 484.121 99.870, 486.388 103.750 C 487.730 106.048, 485.112 105.034, 482.540 102.260 C 480.773 100.354, 480 99.989, 480 101.060 C 480 101.907, 480.540 103.140, 481.200 103.800 C 481.881 104.481, 481.963 105, 481.391 105 C 479.414 105, 476.946 102.451, 476.066 99.499 L 475.172 96.500 475.086 99.191 C 475.039 100.671, 474.532 102.171, 473.961 102.524 C 472.841 103.216, 466 96.328, 466 94.508 C 466 93.902, 464.188 91.637, 461.974 89.475 C 458.491 86.073, 458.188 85.450, 459.724 84.842 C 461.376 84.189, 461.379 84.136, 459.764 84.070 C 458.809 84.032, 454.534 82.201, 450.264 80.002 C 445.994 77.803, 441.600 76.042, 440.500 76.088 C 439.100 76.147, 439.381 76.435, 441.440 77.050 C 443.058 77.534, 444.773 78.629, 445.252 79.485 C 445.731 80.342, 446.536 80.787, 447.041 80.475 C 447.546 80.163, 448.980 80.463, 450.229 81.142 L 452.500 82.377 450 83.089 C 447.595 83.774, 447.615 83.804, 450.527 83.900 C 455.491 84.064, 461.065 88.712, 463.695 94.882 C 464.657 97.139, 464.804 98.596, 464.136 99.264 C 463.007 100.393, 462.159 100.088, 456.500 96.520 C 452.062 93.721, 446.903 91.448, 445.750 91.782 C 445.337 91.902, 445 91.568, 445 91.039 C 445 89.464, 440.668 85.914, 439.358 86.416 C 438.692 86.672, 437.608 86.233, 436.951 85.441 C 435.984 84.276, 436.113 83.984, 437.628 83.914 C 438.910 83.855, 438.659 83.574, 436.828 83.021 C 432.375 81.677, 431.872 81.108, 433.105 78.804 C 433.745 77.607, 434.487 77.163, 434.857 77.754 C 435.276 78.421, 435.917 78.330, 436.693 77.493 C 437.627 76.486, 437.464 75.825, 435.943 74.448 C 434.874 73.481, 434 72.064, 434 71.300 C 434 70.239, 433.110 70.070, 430.250 70.586 C 424.837 71.563, 422.974 72.777, 421.824 76.074 L 420.807 78.992 417.959 76.746 C 414.885 74.322, 414.261 72.465, 416.250 71.662 C 416.938 71.385, 416.574 71.122, 415.441 71.079 C 414.309 71.036, 412.509 71.676, 411.441 72.502 C 409.529 73.983, 409.530 73.996, 411.500 73.408 C 413.025 72.953, 413.165 73.049, 412.091 73.813 C 411.316 74.364, 410 74.553, 409.167 74.234 C 408.087 73.819, 407.828 74.110, 408.266 75.250 C 408.779 76.587, 408.149 76.806, 404.407 76.595 C 401.948 76.456, 400.449 76.659, 401.075 77.046 C 401.901 77.557, 401.858 77.970, 400.916 78.552 C 400.158 79.020, 399.457 78.870, 399.231 78.192 C 398.953 77.360, 397.982 77.475, 395.812 78.597 C 394.144 79.460, 393.049 79.729, 393.379 79.196 C 394.268 77.758, 390.576 77.100, 388.392 78.308 C 386.652 79.270, 386.620 79.207, 388 77.513 C 389.407 75.787, 389.359 75.748, 387.242 76.876 C 386 77.537, 383.300 78.154, 381.242 78.246 C 377.634 78.407, 376.180 77.695, 367 71.272 C 364.615 69.604, 364.564 69.605, 365.891 71.285 C 367.111 72.828, 367.080 72.968, 365.641 72.416 C 364.739 72.069, 364 70.934, 364 69.893 C 364 68.613, 363.292 68, 361.815 68 C 360.613 68, 356.587 66.425, 352.867 64.500 C 345.727 60.805, 344.504 60.388, 345.491 61.985 M 327.629 65.208 C 327.959 65.743, 326.691 67.827, 324.811 69.840 C 322.931 71.853, 320.762 74.400, 319.993 75.500 C 319.223 76.600, 321.121 74.853, 324.209 71.617 C 328.938 66.662, 330.245 65.814, 332.488 66.243 C 334.439 66.615, 334.855 66.455, 334.042 65.642 C 332.658 64.258, 326.796 63.862, 327.629 65.208 M 355.434 71.107 C 354.674 72.337, 356.946 75.185, 358.321 74.726 C 358.883 74.539, 359.409 73.489, 359.490 72.392 C 359.645 70.285, 356.548 69.304, 355.434 71.107 M 299.807 72.750 C 296.761 76.296, 296.785 77.412, 299.845 74.563 C 301.580 72.948, 303 71.485, 303 71.313 C 303 70.381, 301.112 71.231, 299.807 72.750 M 426.136 73.073 C 424.432 73.755, 423.917 74.577, 424.293 76.012 C 424.614 77.239, 424.177 78.376, 423.157 78.972 C 422.238 79.508, 422.043 79.953, 422.719 79.970 C 423.389 79.986, 423.678 80.675, 423.362 81.500 C 422.962 82.541, 423.431 83, 424.893 83 C 426.052 83, 427 82.550, 427 82 C 427 81.450, 427.828 81, 428.839 81 C 429.854 81, 431.215 79.825, 431.873 78.380 C 432.924 76.073, 432.866 75.837, 431.392 76.403 C 430.008 76.934, 429.930 76.789, 430.945 75.567 C 433.373 72.640, 430.691 71.249, 426.136 73.073 M 360 77.680 C 360 78.145, 359.017 78.970, 357.816 79.513 C 355.364 80.621, 354.566 84.896, 356.660 85.700 C 357.397 85.983, 358 86.818, 358 87.557 C 358 89.537, 360.691 90.699, 364.113 90.197 C 366.301 89.876, 366.961 89.342, 366.537 88.236 C 366.054 86.978, 366.216 86.935, 367.477 87.981 C 369.934 90.020, 369.240 87.840, 365.750 82.556 C 362.741 78.001, 360 75.676, 360 77.680 M 340 79.954 C 337.807 80.514, 337.725 80.679, 339.336 81.298 C 340.346 81.686, 341.866 81.615, 342.714 81.140 C 344.835 79.953, 343.052 79.174, 340 79.954 M 299.250 84.115 C 294.703 87.027, 295.201 87.373, 300.250 84.810 C 305.472 82.159, 305.686 81.996, 303.917 82.017 C 303.137 82.026, 301.038 82.970, 299.250 84.115 M 314.500 86 C 314.127 86.604, 315.490 87, 317.941 87 C 320.173 87, 322 86.550, 322 86 C 322 85.450, 320.452 85, 318.559 85 C 316.666 85, 314.840 85.450, 314.500 86 M 384.598 85.842 C 383.749 87.215, 385.158 91, 386.519 91 C 387.226 91, 388.242 89.744, 388.778 88.208 C 389.654 85.693, 389.520 85.396, 387.425 85.223 C 386.146 85.117, 384.874 85.396, 384.598 85.842 M 307.500 87.225 C 303.931 88.495, 300.078 91, 301.695 91 C 303.241 91, 312 87.206, 312 86.536 C 312 85.815, 311.058 85.960, 307.500 87.225 M 320 89.107 C 320 90.173, 325.372 90.890, 326.911 90.030 C 327.828 89.516, 326.867 89.102, 324.161 88.844 C 321.872 88.626, 320 88.744, 320 89.107 M 304.021 92.116 C 302.657 92.660, 300.744 93.826, 299.771 94.708 C 298.797 95.589, 298 95.937, 298 95.481 C 298 93.909, 292.868 99.476, 291.542 102.485 C 288.684 108.972, 288.867 109.353, 293.033 105.589 C 295.274 103.564, 298.208 101.407, 299.554 100.794 C 300.899 100.181, 302 99.345, 302 98.937 C 302 98.529, 303.350 97.725, 305 97.150 C 306.650 96.575, 308 95.432, 308 94.611 C 308 93.790, 308.526 92.793, 309.170 92.395 C 309.942 91.918, 310.135 92.205, 309.739 93.237 C 309.348 94.258, 309.811 94.979, 311.071 95.308 C 312.133 95.586, 312.771 95.438, 312.487 94.979 C 311.863 93.970, 315.613 92.643, 316.878 93.424 C 317.370 93.729, 318.329 93.308, 319.009 92.489 C 320.084 91.194, 319.349 91.008, 313.372 91.063 C 309.593 91.098, 305.384 91.572, 304.021 92.116 M 445 94.500 C 444.007 95.697, 444.007 96.303, 445 97.500 C 446.615 99.446, 448.382 99.438, 447.634 97.488 C 447.174 96.291, 447.621 96.097, 449.777 96.557 L 452.500 97.139 450.139 95.070 C 447.325 92.602, 446.638 92.526, 445 94.500 M 484 106.466 C 484 107.344, 487.404 111, 488.222 111 C 489.833 111, 488.909 109.170, 486.500 107.592 C 485.125 106.691, 484 106.184, 484 106.466 M 495.041 117.750 C 495.018 118.438, 495.450 119, 496 119 C 496.550 119, 497 119.620, 497 120.378 C 497 121.864, 499.755 124.578, 500.503 123.830 C 500.754 123.580, 499.636 121.828, 498.020 119.937 C 496.404 118.047, 495.063 117.063, 495.041 117.750 M 270.309 130.466 C 266.326 132.198, 260.492 139.892, 262.010 141.410 C 262.746 142.146, 264.179 141.337, 266.781 138.718 C 268.826 136.659, 271.512 134.009, 272.750 132.829 C 276.673 129.088, 275.682 128.129, 270.309 130.466 M 252.200 169.200 C 250.754 170.646, 250.640 172, 251.965 172 C 252.495 172, 253.411 171.100, 254 170 C 255.179 167.797, 254.088 167.312, 252.200 169.200 M 246.059 175.653 C 244.911 177.112, 244.164 178.498, 244.399 178.733 C 245.188 179.521, 250 175.786, 250 174.385 C 250 172.218, 248.341 172.752, 246.059 175.653 M 401.638 230.696 C 401.255 231.078, 400.393 231.518, 399.721 231.674 C 394.549 232.872, 386.200 236.442, 386.412 237.365 C 386.555 237.989, 386.483 238.162, 386.253 237.750 C 385.548 236.490, 382.291 236.891, 371.961 239.510 C 366.515 240.890, 361.646 241.903, 361.142 241.760 C 359.952 241.423, 354 248.848, 354 250.669 C 354 252.574, 355.604 253.002, 368.316 254.482 C 369.865 254.662, 371.986 255.582, 373.029 256.526 C 374.072 257.470, 375.585 257.990, 376.391 257.680 C 377.276 257.341, 379.369 258.678, 381.678 261.058 C 383.780 263.225, 386.014 264.999, 386.641 264.999 C 387.269 265, 388.544 266.913, 389.475 269.250 C 393.744 279.976, 397.382 282.348, 398.527 275.153 C 398.847 273.144, 399.535 270.719, 400.055 269.764 C 400.575 268.809, 401 267.326, 401 266.468 C 401 265.611, 402.231 263.692, 403.735 262.205 C 405.239 260.717, 406.497 259.050, 406.530 258.500 C 406.564 257.950, 407.200 257.635, 407.945 257.800 C 408.689 257.965, 410.019 257.778, 410.899 257.386 C 411.780 256.994, 412.725 256.633, 413 256.585 C 413.275 256.536, 414.919 255.485, 416.654 254.248 C 418.389 253.012, 420.704 252, 421.797 252 C 422.891 252, 424.045 251.325, 424.362 250.500 C 424.678 249.675, 425.626 249, 426.469 249 C 427.311 249, 428.900 248.100, 430 247 C 431.566 245.434, 432 245.328, 432 246.508 C 432 247.767, 432.332 247.810, 434 246.768 C 436.321 245.318, 436.726 242.784, 434.500 243.638 C 433.532 244.010, 433 243.616, 433 242.528 C 433 241.174, 432.408 240.971, 430 241.500 C 428.350 241.862, 427 241.742, 427 241.232 C 427 240.722, 425.588 240.264, 423.863 240.215 C 422.138 240.166, 420.248 239.648, 419.663 239.063 C 419.078 238.478, 417.002 237.993, 415.050 237.985 C 411.025 237.967, 408.443 236.710, 409.366 235.217 C 410.251 233.785, 407.800 233.074, 403.337 233.468 C 401.227 233.655, 400.288 233.593, 401.250 233.330 C 402.212 233.068, 403 232.211, 403 231.427 C 403 229.840, 402.670 229.663, 401.638 230.696 M 366.443 235.418 C 365.376 236.198, 364.852 237.186, 365.279 237.613 C 365.706 238.040, 367.043 237.401, 368.250 236.194 C 370.696 233.748, 369.455 233.215, 366.443 235.418 M 433.950 274.261 C 432.548 275.493, 430.605 277.469, 429.632 278.654 C 427.865 280.807, 427.868 280.810, 435.058 282.445 C 439.015 283.345, 442.472 283.861, 442.741 283.592 C 443.011 283.323, 442.074 282.067, 440.661 280.801 C 439.247 279.536, 437.733 277.043, 437.295 275.261 L 436.500 272.023 433.950 274.261 M 355 281.365 C 355 282.666, 354.100 284.874, 353 286.273 C 350.300 289.705, 350.458 290.030, 354.250 288.845 C 356.038 288.286, 359.525 287.270, 362 286.586 L 366.500 285.342 363.427 283.737 C 361.737 282.854, 359.770 281.427, 359.055 280.566 C 357.121 278.235, 355 278.653, 355 281.365 M 331.659 283.825 C 330.746 284.833, 330 285.966, 330 286.343 C 330 287.627, 336.490 290.993, 338.973 290.996 L 341.445 291 339.137 289.383 C 337.867 288.494, 336.039 286.467, 335.073 284.879 C 333.385 282.104, 333.253 282.063, 331.659 283.825 M 533.574 283.881 C 532.617 285.428, 534.239 309.970, 535.257 309.341 C 535.780 309.018, 537.052 306.896, 538.082 304.627 C 540.173 300.023, 540.703 288.183, 538.965 284.934 C 537.905 282.955, 534.551 282.299, 533.574 283.881 M 521.887 286.500 C 520.573 288.653, 519.988 293, 521.012 293 C 521.590 293, 522.309 292.358, 522.610 291.573 C 523.325 289.710, 522.682 285.198, 521.887 286.500 M 541.962 290.191 C 541.895 296.070, 540.876 301.348, 538.412 308.575 C 535.113 318.251, 535.452 318.753, 539.711 310.500 C 542.677 304.755, 543.406 302.135, 543.783 295.884 C 544.085 290.873, 543.858 288.030, 543.121 287.575 C 542.382 287.118, 541.987 288.009, 541.962 290.191 M 522.150 297.750 C 520.967 300.096, 520.531 302.249, 520.987 303.500 C 521.734 305.552, 520.339 309.925, 518.520 311.235 C 517.959 311.639, 516.600 311.976, 515.500 311.984 C 513.648 311.998, 513.500 312.671, 513.500 321.062 C 513.500 329.076, 513.659 329.885, 514.872 328.062 C 515.627 326.928, 516.829 326, 517.544 326 C 518.259 326, 520.410 324.171, 522.323 321.936 C 524.691 319.170, 526.041 318.257, 526.548 319.078 C 527.054 319.897, 527.756 319.404, 528.728 317.549 C 530.393 314.371, 529.627 305.769, 527.488 303.630 C 526.763 302.906, 526.203 301.680, 526.243 300.906 C 526.441 297.063, 525.899 294, 525.020 294 C 524.482 294, 523.190 295.688, 522.150 297.750 M 393.485 306.054 C 392.393 307.697, 391.639 309.737, 391.810 310.589 C 391.980 311.442, 390.800 314.245, 389.188 316.819 C 387.575 319.394, 385.007 324.749, 383.481 328.721 L 380.707 335.942 383.103 337.961 C 388.167 342.227, 395.594 345.168, 400.159 344.715 C 406.202 344.114, 407.468 343.402, 410.417 338.946 C 412.969 335.090, 414.077 328.217, 411.933 329.542 C 411.345 329.905, 410.619 329.257, 410.316 328.101 C 410.014 326.945, 409.175 326, 408.451 326 C 407.727 326, 406.849 325.100, 406.500 324 C 406.139 322.861, 404.987 322, 403.826 322 C 402.371 322, 401.961 321.543, 402.397 320.407 C 402.805 319.345, 402.341 318.640, 401.004 318.291 C 398.708 317.690, 398.449 315.861, 400.250 312.956 C 401.202 311.419, 401.220 310.764, 400.322 310.205 C 399.674 309.801, 399.224 308.646, 399.322 307.637 C 399.420 306.629, 398.593 305.188, 397.485 304.436 C 395.663 303.199, 395.280 303.354, 393.485 306.054 M 279.229 312.664 C 281.473 316.466, 283.535 317.125, 282.630 313.750 C 282.299 312.512, 282.021 311.215, 282.014 310.867 C 282.006 310.518, 280.934 310.029, 279.630 309.780 L 277.260 309.327 279.229 312.664 M 467.413 310.635 C 467.688 311.350, 467.502 312.190, 467 312.500 C 466.498 312.810, 466.341 313.725, 466.651 314.532 C 467.283 316.181, 465.465 316.561, 464.490 314.984 C 464.144 314.425, 463.378 314.266, 462.787 314.632 C 462.196 314.997, 460.427 315.260, 458.856 315.215 C 457.285 315.170, 456 315.554, 456 316.067 C 456 316.580, 456.450 317, 457 317 C 457.550 317, 458 317.520, 458 318.155 C 458 318.809, 457.131 318.524, 455.996 317.497 C 454.654 316.282, 452.510 315.706, 449.499 315.751 C 447.028 315.789, 444.753 315.410, 444.444 314.910 C 444.135 314.409, 443.346 314.007, 442.691 314.015 C 441.969 314.025, 442.090 314.425, 443 315.034 C 444.290 315.896, 444.219 316.203, 442.500 317.221 C 441.400 317.873, 439.375 318.324, 438 318.224 C 436.281 318.099, 434.774 318.972, 433.176 321.019 L 430.851 323.996 433.440 329.649 C 436.073 335.400, 437.090 344.651, 435.678 350 C 435.315 351.375, 435.277 351.938, 435.593 351.250 C 435.908 350.563, 436.894 350, 437.783 350 C 439.041 350, 439.133 350.267, 438.200 351.200 C 436.430 352.970, 436.736 354, 439.031 354 C 440.149 354, 441.321 354.672, 441.636 355.494 C 441.952 356.316, 442.599 356.748, 443.075 356.453 C 444.058 355.846, 449.641 358.503, 450.160 359.824 C 450.759 361.350, 455.987 362.179, 456.115 360.769 C 456.179 360.071, 456.335 359.050, 456.463 358.500 C 456.591 357.950, 456.764 356.969, 456.848 356.320 C 456.955 355.490, 457.891 355.395, 460 356 C 461.650 356.473, 463 356.494, 463 356.047 C 463 355.599, 463.945 354.986, 465.101 354.684 C 466.257 354.381, 466.905 353.655, 466.542 353.067 C 465.486 351.359, 466.954 349.717, 468.437 350.948 C 470.321 352.511, 472.472 349.516, 474.506 342.500 C 476.401 335.962, 476.860 326.180, 475.320 325.147 C 474.058 324.302, 472.630 320.840, 472.886 319.250 C 473.003 318.525, 472.020 318, 470.544 318 C 469.145 318, 468 317.502, 468 316.893 C 468 316.284, 468.661 316.040, 469.468 316.349 C 470.275 316.659, 471.202 316.482, 471.527 315.956 C 471.852 315.430, 471.641 315, 471.059 315 C 469.553 315, 469.749 313.394, 471.463 311.680 C 472.748 310.395, 472.559 310.162, 469.920 309.775 C 467.740 309.455, 467.051 309.691, 467.413 310.635 M 322.900 316.083 C 321.776 316.794, 321.845 316.972, 323.250 316.985 C 324.212 316.993, 325 317.423, 325 317.941 C 325 319.438, 322.843 320.364, 322.112 319.181 C 321.736 318.573, 320.879 318.457, 320.139 318.914 C 319.169 319.513, 319.370 319.864, 320.915 320.268 C 323.818 321.027, 323.516 322.645, 320.250 323.838 C 318.738 324.390, 318.063 324.878, 318.750 324.921 C 319.438 324.964, 320.029 326.012, 320.063 327.250 L 320.127 329.500 321.055 327.186 C 321.565 325.913, 322.468 325.171, 323.060 325.537 C 323.652 325.903, 323.922 326.760, 323.661 327.442 C 323.399 328.124, 323.577 329.316, 324.056 330.091 C 324.788 331.274, 325.205 331.223, 326.658 329.770 C 328.261 328.168, 328.520 328.161, 330.194 329.675 C 331.866 331.189, 332 331.187, 332 329.655 C 332 327.854, 334.502 327.385, 335.500 329 C 335.840 329.550, 336.793 330, 337.618 330 C 338.443 330, 338.857 329.578, 338.538 329.061 C 338.219 328.545, 338.755 327.634, 339.729 327.037 C 341.032 326.237, 341.096 326.023, 339.970 326.225 C 339.129 326.376, 338.342 326.163, 338.220 325.750 C 338.099 325.337, 338.225 325, 338.500 325 C 338.775 325, 339.675 325, 340.500 325 C 341.325 325, 342 325.822, 342 326.826 C 342 329.203, 337.459 333.552, 336.536 332.059 C 336.165 331.459, 335.436 331.231, 334.915 331.553 C 334.394 331.875, 334.207 332.526, 334.500 333 C 334.793 333.474, 334.553 334.158, 333.968 334.520 C 333.236 334.972, 333.224 335.565, 333.931 336.417 C 334.583 337.202, 334.637 338.780, 334.078 340.729 C 333.593 342.419, 333.330 347.443, 333.493 351.895 C 333.661 356.480, 333.401 359.748, 332.895 359.435 C 332.403 359.131, 332 359.632, 332 360.548 C 332 361.610, 332.538 362.008, 333.485 361.644 C 335.429 360.898, 337 363.919, 337 368.403 C 337 371.194, 337.328 371.811, 338.560 371.339 C 339.609 370.936, 340.307 371.456, 340.691 372.927 C 341.045 374.280, 341.799 374.908, 342.669 374.573 C 343.443 374.277, 344.339 374.721, 344.661 375.560 C 345.168 376.880, 345.467 376.895, 346.874 375.674 C 347.768 374.897, 349.749 374.038, 351.275 373.764 C 353.494 373.367, 353.948 373.591, 353.543 374.884 C 353.211 375.945, 353.957 376.929, 355.718 377.750 C 359.316 379.428, 361.065 379.334, 360.362 377.500 C 360.045 376.675, 360.242 376, 360.799 376 C 361.357 376, 361.589 375.143, 361.315 374.096 C 360.971 372.783, 361.466 371.987, 362.909 371.529 C 364.059 371.164, 365 370.518, 365 370.093 C 365 369.668, 366.125 368.808, 367.500 368.182 C 368.875 367.555, 370 366.358, 370 365.521 C 370 364.667, 370.876 364, 372 364 C 374.404 364, 374.510 363.367, 372.452 361.310 C 370.526 359.383, 371.396 358.254, 373.476 359.980 C 374.314 360.676, 375.056 360.965, 375.125 360.622 C 375.194 360.280, 375.313 359.663, 375.390 359.250 C 375.467 358.837, 375.888 357.938, 376.324 357.250 C 376.777 356.537, 376.663 356, 376.059 356 C 375.477 356, 375 356.450, 375 357 C 375 357.550, 374.325 358, 373.500 358 C 372.675 358, 372 357.351, 372 356.557 C 372 355.764, 371.030 353.470, 369.844 351.459 C 367.276 347.107, 367.001 341.653, 368.947 333.644 C 370.355 327.850, 370.344 327.768, 367.935 325.951 C 366.596 324.941, 365.500 323.526, 365.500 322.807 C 365.500 322.088, 364.938 321.444, 364.250 321.375 C 363.563 321.306, 362.580 321.194, 362.066 321.125 C 361.553 321.056, 361.338 319.865, 361.590 318.477 C 362.010 316.162, 361.880 316.058, 360.024 317.217 C 358.911 317.912, 358 318.823, 358 319.241 C 358 319.658, 357.212 320.014, 356.250 320.032 C 354.232 320.068, 351 322.288, 351 323.638 C 351 324.594, 346.573 328.751, 346.404 327.954 C 346.351 327.704, 345.491 328.175, 344.494 329 C 342.761 330.434, 342.749 330.369, 344.233 327.532 C 345.643 324.834, 345.638 324.456, 344.180 323.390 C 342.828 322.401, 342.785 321.964, 343.910 320.608 C 344.792 319.545, 344.864 319, 344.122 319 C 343.505 319, 343 319.434, 343 319.965 C 343 320.495, 342.067 321.429, 340.926 322.040 C 339.207 322.959, 338.770 322.837, 338.375 321.325 C 338 319.891, 336.957 319.517, 333.505 319.579 C 330.271 319.638, 328.477 319.070, 326.706 317.428 C 325.070 315.911, 323.852 315.480, 322.900 316.083 M 277.731 316.603 C 277.399 316.934, 277.503 318.193, 277.962 319.401 C 278.479 320.760, 278.207 324.226, 277.247 328.506 C 275.554 336.053, 276.473 342.655, 279.715 346.238 C 281.235 347.918, 281.377 347.906, 282.712 346.001 C 284.532 343.403, 285.387 343.478, 288.409 346.500 C 289.784 347.875, 291.830 349, 292.955 349 C 295.349 349, 295.433 348.382, 293.500 345 C 292.714 343.625, 292.055 340.444, 292.035 337.930 C 292.009 334.493, 291.443 332.854, 289.750 331.317 C 285.901 327.820, 282.505 323.065, 282.387 321.007 C 282.202 317.755, 279.311 315.022, 277.731 316.603 M 266.427 333.750 C 268.827 338.215, 271.986 342.583, 271.993 341.446 C 272.001 340.190, 266.285 331, 265.496 331 C 265.195 331, 265.614 332.238, 266.427 333.750 M 517.496 338.007 C 517.153 338.561, 517.596 339.292, 518.480 339.631 C 520.394 340.365, 521.461 339.556, 520.541 338.067 C 519.711 336.723, 518.306 336.696, 517.496 338.007 M 470.154 339.552 C 470.345 340.532, 471.105 341.536, 471.846 341.782 C 472.706 342.069, 473.066 341.588, 472.846 340.448 C 472.655 339.468, 471.895 338.464, 471.154 338.218 C 470.294 337.931, 469.934 338.412, 470.154 339.552 M 417.090 344.998 C 409.923 349.039, 411.345 350.201, 420.605 347.869 C 423.869 347.047, 425.012 346.296, 424.788 345.119 C 424.348 342.812, 421.059 342.760, 417.090 344.998 M 378.693 347.688 C 377.659 349.360, 379.487 350.834, 383.009 351.169 L 386.500 351.500 386.520 357 C 386.530 360.025, 386.865 363.015, 387.264 363.645 C 387.665 364.279, 387.321 365.047, 386.494 365.364 C 384.717 366.046, 384.503 368.668, 386.180 369.227 C 386.914 369.471, 387.075 370.353, 386.606 371.560 C 385.882 373.421, 385.774 373.405, 383.938 371.154 L 382.024 368.808 381.012 371.469 C 379.729 374.843, 379.734 376, 381.030 376 C 381.596 376, 381.093 377.307, 379.912 378.905 C 377.546 382.106, 378.047 384.485, 380.796 383.102 C 389.435 378.754, 393.005 378.217, 400.589 380.127 C 404.255 381.050, 405.373 380.990, 406.781 379.794 C 407.727 378.992, 410.168 377.573, 412.208 376.641 C 416.972 374.463, 417.527 373.453, 415.586 370.491 C 414.714 369.160, 414 367.255, 414 366.258 C 414 365.261, 413.341 363.504, 412.535 362.354 C 411.730 361.204, 411.306 360.027, 411.595 359.739 C 411.883 359.450, 411.269 357.629, 410.231 355.692 C 408.827 353.073, 407.979 352.401, 406.922 353.070 C 404.918 354.338, 398.272 354.216, 395.747 352.865 C 394.581 352.240, 392.725 350.890, 391.624 349.865 C 390.524 348.839, 388.920 347.995, 388.061 347.989 C 387.203 347.983, 384.870 347.708, 382.877 347.379 C 380.885 347.049, 379.002 347.188, 378.693 347.688 M 282 349.977 C 282 350.540, 282.450 351, 283 351 C 283.550 351, 284 351.675, 284 352.500 C 284 354.140, 285.555 354.530, 286.432 353.109 C 286.735 352.620, 285.862 351.484, 284.491 350.586 C 283.121 349.688, 282 349.414, 282 349.977 M 6.625 358.285 C 5.656 358.993, 4.615 361.452, 4.305 363.764 C 3.331 371.022, 8.455 375.898, 13.549 372.560 C 15.607 371.211, 16 370.156, 16 365.977 C 16 358.587, 11.387 354.803, 6.625 358.285 M 289.329 357.807 C 287.439 358.993, 284.873 366.359, 285.492 368.822 C 285.927 370.558, 285.745 370.974, 284.790 370.423 C 284.081 370.014, 284.850 371.089, 286.500 372.812 C 291.358 377.884, 300 377.039, 300 371.491 C 300 370.331, 299.374 368.526, 298.608 367.479 C 297.443 365.885, 296.962 365.787, 295.652 366.874 C 294.792 367.588, 293.627 367.888, 293.064 367.540 C 292.502 367.192, 291.093 367.415, 289.935 368.035 C 287.335 369.426, 286.544 368.783, 287.858 366.347 C 288.406 365.331, 289.106 363.691, 289.414 362.703 C 289.728 361.695, 290.731 361.036, 291.700 361.203 C 292.770 361.387, 293.578 360.739, 293.822 359.500 C 294.039 358.400, 293.872 357.834, 293.450 358.241 C 293.029 358.649, 292.178 358.562, 291.558 358.049 C 290.939 357.535, 289.936 357.426, 289.329 357.807 M 7.631 359.280 C 3.868 362.032, 6.228 373, 10.584 373 C 14.661 373, 16.534 364.635, 13.443 360.223 C 11.670 357.691, 10.144 357.443, 7.631 359.280 M 516.068 364.950 C 516.016 367.580, 516.278 368.122, 517.167 367.233 C 518.031 366.369, 518.048 365.470, 517.235 363.783 C 516.202 361.639, 516.131 361.710, 516.068 364.950 M 412 396.137 C 409.525 396.642, 405.137 396.796, 402.250 396.479 C 398.609 396.079, 397 396.257, 397 397.060 C 397 397.775, 396.102 397.992, 394.648 397.627 C 393.355 397.302, 392.021 397.312, 391.684 397.650 C 390.849 398.484, 392.904 402.177, 393.871 401.580 C 394.295 401.318, 396.099 401.990, 397.881 403.074 C 401.151 405.063, 403.531 404.858, 402.442 402.681 C 402.117 402.031, 402.560 402.374, 403.426 403.441 C 404.984 405.363, 405.015 405.363, 406.468 403.441 C 407.295 402.348, 407.950 402.046, 407.968 402.750 C 408.006 404.245, 411.616 404.431, 412.510 402.984 C 412.856 402.425, 413.557 402.226, 414.069 402.543 C 414.581 402.859, 415 402.416, 415 401.559 C 415 400.558, 415.905 400, 417.531 400 C 420.411 400, 422.003 397.249, 419.896 395.914 C 418.290 394.898, 418.042 394.905, 412 396.137 M 382.787 408.875 C 380.875 409.573, 381.756 411.944, 384.100 412.413 C 384.870 412.567, 386.850 413.294, 388.500 414.028 C 392.442 415.783, 394.815 415.960, 398.264 414.758 C 400.870 413.850, 400.974 413.629, 399.546 412.051 C 398.691 411.106, 397.431 410.298, 396.746 410.255 C 394.168 410.093, 385.544 408.838, 385.033 408.550 C 384.740 408.385, 383.729 408.532, 382.787 408.875 M 385.287 424.344 C 385 424.808, 383.683 424.981, 382.359 424.728 C 381.035 424.475, 379.711 424.658, 379.417 425.134 C 379.123 425.610, 378.009 426, 376.941 426 C 374.944 426, 374.634 426.772, 374.979 430.886 C 375.089 432.198, 374.576 433.654, 373.839 434.120 C 372.841 434.753, 372.818 434.973, 373.750 434.985 C 374.438 434.993, 375 435.734, 375 436.632 C 375 438.302, 378.459 444.507, 380.641 446.750 C 381.310 447.438, 382.564 448, 383.429 448 C 384.293 448, 385 448.402, 385 448.893 C 385 450.427, 388.298 451.134, 389.155 449.784 C 389.754 448.840, 389.973 448.963, 389.985 450.250 C 389.999 451.908, 392.751 452.622, 396.894 452.042 C 397.660 451.934, 398.707 452.443, 399.220 453.173 C 399.950 454.213, 400.262 454.229, 400.659 453.250 C 400.938 452.563, 401.606 452, 402.142 452 C 402.679 452, 402.866 452.408, 402.558 452.907 C 402.249 453.405, 402.898 453.578, 403.999 453.290 C 405.099 453.002, 406 452.314, 406 451.761 C 406 451.193, 406.653 451.297, 407.500 452 C 408.325 452.685, 409.007 452.852, 409.015 452.372 C 409.024 451.893, 409.411 452.100, 409.876 452.834 C 410.529 453.864, 411.187 453.578, 412.755 451.584 C 415.067 448.645, 416 448.333, 416 450.500 C 416 452.198, 417.566 452.511, 418.500 451 C 418.840 450.450, 418.641 450, 418.059 450 C 417.477 450, 417 449.454, 417 448.786 C 417 448.038, 417.672 448.243, 418.750 449.322 C 420.260 450.833, 420.299 451.197, 419.029 451.982 C 418.220 452.482, 417.818 453.151, 418.136 453.469 C 419.102 454.436, 422 452.879, 422 451.393 C 422 450.627, 422.900 450, 424 450 C 425.100 450, 426 449.530, 426 448.956 C 426 448.382, 426.563 447.985, 427.250 448.075 C 429.793 448.405, 431.101 447.972, 430.500 447 C 430.160 446.450, 430.359 446, 430.941 446 C 432.640 446, 435.895 442.268, 436.581 439.532 C 436.929 438.147, 437.615 437.262, 438.107 437.566 C 439.327 438.320, 439.235 435.307, 437.965 432.934 C 437.099 431.316, 437.263 431, 438.965 431 C 440.084 431, 441 430.550, 441 430 C 441 429.450, 440.550 429, 440 429 C 439.450 429, 439 428.325, 439 427.500 C 439 426.675, 438.325 426, 437.500 426 C 436.675 426, 436 425.590, 436 425.088 C 436 423.174, 432.484 424.787, 432.180 426.841 C 431.817 429.296, 430.210 429.712, 429.386 427.564 C 429.056 426.703, 427.365 426.092, 425.168 426.038 C 423.150 425.988, 420.825 425.901, 420 425.844 C 419.175 425.787, 416.813 426.073, 414.750 426.481 C 412.688 426.889, 410.999 426.835, 410.998 426.361 C 410.996 425.305, 402.464 425.206, 401.418 426.250 C 401.005 426.663, 399.954 426.993, 399.083 426.985 C 397.790 426.972, 397.754 426.809, 398.883 426.093 C 399.895 425.453, 399.357 425.002, 396.883 424.415 C 392.345 423.339, 385.933 423.300, 385.287 424.344 M 430.792 439.676 C 431.763 440.066, 431.804 440.532, 430.956 441.553 C 430.335 442.301, 430.148 443.430, 430.539 444.063 C 431.056 444.899, 431.485 444.843, 432.110 443.857 C 433.578 441.539, 433.121 438.995, 431.250 439.079 C 430.137 439.129, 429.970 439.347, 430.792 439.676 M 316.482 469.591 C 312.669 475.127, 295.077 492.223, 283.500 501.642 C 279.547 504.858, 270.505 509.895, 257 516.406 C 236.556 526.261, 219.529 535.499, 211 541.365 C 203.126 546.780, 151.560 571.706, 142.340 574.554 C 137.478 576.056, 130.575 578.535, 127 580.062 C 123.425 581.589, 119.251 583.112, 117.725 583.445 C 110.731 584.972, 102.408 597.221, 100.023 609.500 C 99.382 612.800, 98.016 618.650, 96.987 622.500 C 94.710 631.020, 92.350 647.855, 91.450 662 C 90.274 680.475, 89.476 716.207, 90.032 725.500 C 90.446 732.433, 90.038 737.370, 88.254 747 C 78.564 799.314, 76.422 819.595, 75.382 868.910 L 74.684 902 265.499 902 L 456.314 902 455.673 882.750 C 455.210 868.825, 455.425 860.187, 456.451 851.523 C 457.321 844.170, 457.514 839.119, 456.949 838.439 C 456.054 837.361, 456.912 821.154, 458.982 800 C 461.495 774.323, 460.932 724.139, 457.883 702.056 C 456.571 692.555, 448.893 660.413, 445.090 648.500 C 443.510 643.550, 441.513 637.025, 440.652 634 C 438.433 626.207, 432.802 592.843, 432.297 584.500 C 432.064 580.650, 431.420 576.046, 430.866 574.270 C 429.412 569.609, 428.937 569.991, 442.317 565.041 L 445.135 563.998 442.870 560.817 C 440.204 557.074, 425.467 542, 424.472 542 C 424.096 542, 422.090 543.345, 420.014 544.989 L 416.241 547.977 413.583 545.886 C 411.359 544.137, 411.125 543.527, 412.150 542.148 C 412.824 541.242, 411.987 541.850, 410.289 543.500 C 406.603 547.083, 401.172 556.864, 396.559 568.225 C 391.724 580.136, 386.208 591.668, 382.317 598 L 378.938 603.500 381.973 600.033 C 385.212 596.333, 397 573.925, 397 571.468 C 397 568.718, 399.028 569.990, 400.638 573.750 C 401.522 575.813, 402.650 578.298, 403.145 579.273 C 403.689 580.343, 403.605 586.294, 402.933 594.273 C 402.321 601.548, 401.483 611.550, 401.072 616.500 C 400.469 623.761, 399.031 629.282, 393.632 645.073 C 383.115 675.831, 382.760 680.584, 382.419 795 C 382.285 839.825, 382.097 876.950, 382.002 877.500 C 381.317 881.441, 373.859 843.916, 369.083 812.500 C 366.909 798.200, 362.878 773, 360.126 756.500 C 357.374 740, 354.169 719.975, 353.003 712 C 350.386 694.093, 344.874 662.446, 340.897 642.500 C 334.612 610.981, 332.832 600.955, 330.484 583.867 C 329.151 574.168, 327.596 564.161, 327.029 561.628 C 324.779 551.588, 321.783 530.745, 320.570 516.700 C 319.519 504.522, 319.528 500.448, 320.619 493.700 C 321.349 489.190, 322.025 484.150, 322.122 482.500 C 322.294 479.583, 321.028 464.751, 320.564 464.250 C 320.437 464.112, 318.600 466.516, 316.482 469.591 M 356 488 C 356.825 488.533, 357.134 488.976, 356.687 488.985 C 356.240 488.993, 357.140 490.298, 358.687 491.884 C 360.234 493.470, 361.777 494.606, 362.116 494.408 C 362.455 494.209, 363.493 494.888, 364.423 495.915 C 365.466 497.067, 366.954 497.600, 368.307 497.305 C 370.079 496.918, 370.212 497.032, 369 497.898 C 368.175 498.487, 367.950 498.982, 368.500 498.998 C 369.050 499.014, 370.519 499.300, 371.765 499.634 C 373.537 500.109, 373.899 499.902, 373.431 498.682 C 373.102 497.824, 371.558 496.842, 370 496.500 C 368.442 496.158, 366.935 495.273, 366.651 494.533 C 366.367 493.794, 364.850 492.906, 363.280 492.562 C 361.710 492.217, 359.592 490.824, 358.573 489.467 C 357.554 488.110, 356.220 487.007, 355.610 487.015 C 354.999 487.024, 355.175 487.467, 356 488 M 437.032 672.709 C 436.963 675.308, 439.299 689.579, 440.012 690.918 C 441.450 693.617, 442.185 686.208, 441.031 680.652 C 439.999 675.676, 437.105 669.930, 437.032 672.709 M 858.694 783.750 C 858.397 785.263, 858.569 786.928, 859.077 787.450 C 859.646 788.036, 860 786.981, 860 784.700 C 860 780.321, 859.446 779.918, 858.694 783.750 M 870.015 787.405 C 870 792.194, 870.046 792.268, 871.937 790.557 C 873.002 789.593, 874.352 789.100, 874.937 789.461 C 875.522 789.822, 876 789.678, 876 789.141 C 876 788.603, 876.251 787.510, 876.557 786.711 C 876.864 785.912, 876.437 784.998, 875.608 784.680 C 874.550 784.274, 874.279 784.563, 874.697 785.652 C 875.024 786.504, 874.663 787.600, 873.896 788.086 C 871.719 789.464, 870.815 789.160, 871.410 787.250 C 871.709 786.288, 871.522 784.825, 870.992 784 C 870.303 782.924, 870.026 783.888, 870.015 787.405" stroke="none" fill="#1c1711" fill-rule="evenodd"/></svg>